<svg xmlns="http://www.w3.org/2000/svg" xmlns:xlink="http://www.w3.org/1999/xlink" xmlns:lucid="lucid" width="1368" height="855"><g transform="translate(3901 134)" lucid:page-tab-id="0_0"><path d="M-3460-25.73V-107a6 6 0 0 1 6-6h488a6 6 0 0 1 6 6v81.27z" stroke="#282c33" stroke-width="2" fill="#fff"/><path d="M-2960-25.73V694a6 6 0 0 1-6 6h-488a6 6 0 0 1-6-6V-25.73z" stroke="#282c33" stroke-width="2" fill="none"/><use xlink:href="#a" transform="matrix(1,0,0,1,-3460,-113) translate(213.43333333333334 37.06666666666667)"/><use xlink:href="#b" transform="matrix(1,0,0,1,-3460,-113) translate(220.1 37.06666666666667)"/><use xlink:href="#c" transform="matrix(1,0,0,1,-3460,-113) translate(178.40493827160498 72.31111111111112)"/><use xlink:href="#d" transform="matrix(1,0,0,1,-3460,-113) translate(277.10617283950614 72.31111111111112)"/><path d="M-3388.33 658.18H-3424a6 6 0 0 1-6-6V147.82a6 6 0 0 1 6-6h35.67z" stroke="#00c2a8" stroke-width="2" fill="#d7faf5"/><path d="M-3388.33 141.82H-2996a6 6 0 0 1 6 6v504.36a6 6 0 0 1-6 6h-392.33z" stroke="#00c2a8" stroke-width="2" fill="none"/><use xlink:href="#e" transform="matrix(-1.8369701987210297e-16,-1,1,-1.8369701987210297e-16,-3429.999999999999,658.1833333333338) translate(171.49382716049382 25.444444444444443)"/><use xlink:href="#f" transform="matrix(-1.8369701987210297e-16,-1,1,-1.8369701987210297e-16,-3429.999999999999,658.1833333333338) translate(292.41975308641975 25.444444444444443)"/><path d="M-2880 190.9V126a6 6 0 0 1 6-6h308a6 6 0 0 1 6 6v64.9z" stroke="#282c33" stroke-width="2" fill="#fff"/><path d="M-2560 190.9v206.74a6 6 0 0 1-6 6h-308a6 6 0 0 1-6-6V190.9z" stroke="#282c33" stroke-width="2" fill="none"/><use xlink:href="#a" transform="matrix(1,0,0,1,-2880,120) translate(95.5 29.200000000000003)"/><use xlink:href="#g" transform="matrix(1,0,0,1,-2880,120) translate(102.16666666666667 29.200000000000003)"/><use xlink:href="#c" transform="matrix(1,0,0,1,-2880,120) translate(88.40493827160496 64.44444444444444)"/><use xlink:href="#d" transform="matrix(1,0,0,1,-2880,120) translate(187.10617283950614 64.44444444444444)"/><path d="M-3880 346a6 6 0 0 1 6-6h148a6 6 0 0 1 6 6v108a6 6 0 0 1-6 6h-148a6 6 0 0 1-6-6z" stroke="#8ee895" stroke-width="2" fill="#c3f7c8"/><use xlink:href="#h" transform="matrix(1,0,0,1,-3872,346) translate(29.500000000000007 44.77777777777778)"/><use xlink:href="#i" transform="matrix(1,0,0,1,-3872,346) translate(25.76543209876543 71.44444444444446)"/><path d="M-3329.17 6a6 6 0 0 1 6-6h268a6 6 0 0 1 6 6v47.26a6 6 0 0 1-6 6h-268a6 6 0 0 1-6-6z" stroke="#b5d6ff" stroke-width="2" fill="#cfe4ff"/><use xlink:href="#j" transform="matrix(1,0,0,1,-3315.166666666667,2.962962962962963) translate(71.12345679012346 31.27777777777778)"/><path d="M-3716.5 400h260.64" stroke="#fc9432" stroke-width="5" fill="none"/><path d="M-3716.44 402.48h-2.56v-4.96h2.56z" stroke="#fc9432" stroke-width=".05" fill="#fc9432"/><path d="M-3439.1 400l-14.26 4.63v-9.26z" stroke="#fc9432" stroke-width="5" fill="#fc9432"/><path d="M-3360 564.18a6 6 0 0 1 6-6h328a6 6 0 0 1 6 6v48a6 6 0 0 1-6 6h-328a6 6 0 0 1-6-6z" stroke="#00c2a8" stroke-width="2" fill="#d7faf5"/><use xlink:href="#k" transform="matrix(1,0,0,1,-3343,561.1833333333334) translate(71.08641975308642 31.27777777777778)"/><use xlink:href="#l" transform="matrix(1,0,0,1,-3343,561.1833333333334) translate(153.74074074074073 31.27777777777778)"/><path d="M-3360 166a6 6 0 0 1 6-6h328a6 6 0 0 1 6 6v48a6 6 0 0 1-6 6h-328a6 6 0 0 1-6-6z" stroke="#00c2a8" stroke-width="2" fill="#d7faf5"/><use xlink:href="#m" transform="matrix(1,0,0,1,-3343,163) translate(45.00617283950618 31.27777777777778)"/><use xlink:href="#n" transform="matrix(1,0,0,1,-3343,163) translate(195.56172839506172 31.27777777777778)"/><path d="M-3189.17 62.76v46.45a.42.42 0 0 1-.4.43.42.42 0 0 0-.43.42v24.1" stroke="#fe7070" stroke-width="5" fill="none"/><path d="M-3186.7 62.82h-4.94v-2.56h4.95z" stroke="#fe7070" stroke-width=".05" fill="#fe7070"/><path d="M-3190 150.9l-4.64-14.26h9.28z" stroke="#fe7070" stroke-width="5" fill="#fe7070"/><path d="M-3190 223.5v34.07a6 6 0 0 1-6 6h-98a6 6 0 0 0-6 6v11.7" stroke="#fc9432" stroke-width="5" fill="none"/><path d="M-3187.53 223.56h-4.94V221h4.94z" stroke="#fc9432" stroke-width=".05" fill="#fc9432"/><path d="M-3300 298.04l-4.64-14.26h9.28z" stroke="#fc9432" stroke-width="5" fill="#fc9432"/><path d="M-3380 313.13a6 6 0 0 1 6-6h148a6 6 0 0 1 6 6v48a6 6 0 0 1-6 6h-148a6 6 0 0 1-6-6z" stroke="#00c2a8" stroke-width="2" fill="#d7faf5"/><use xlink:href="#o" transform="matrix(1,0,0,1,-3372,310.1333333333333) translate(24.469135802469133 31.27777777777778)"/><path d="M-3180 313.13a6 6 0 0 1 6-6h148a6 6 0 0 1 6 6v48a6 6 0 0 1-6 6h-148a6 6 0 0 1-6-6z" stroke="#00c2a8" stroke-width="2" fill="#d7faf5"/><use xlink:href="#p" transform="matrix(1,0,0,1,-3172,310.1333333333333) translate(6.629629629629619 31.27777777777778)"/><path d="M-3190 223.5v34.07a6 6 0 0 0 6 6h78a6 6 0 0 1 6 6v11.7" stroke="#fc9432" stroke-width="5" fill="none"/><path d="M-3187.53 223.56h-4.94V221h4.94z" stroke="#fc9432" stroke-width=".05" fill="#fc9432"/><path d="M-3100 298.04l-4.64-14.26h9.28z" stroke="#fc9432" stroke-width="5" fill="#fc9432"/><path d="M-3300 370.63v86.03a6 6 0 0 0 6 6h98a6 6 0 0 1 6 6v63.67" stroke="#fc9432" stroke-width="5" fill="none"/><path d="M-3297.53 370.7h-4.94v-2.57h4.94z" stroke="#fc9432" stroke-width=".05" fill="#fc9432"/><path d="M-3190 549.1l-4.64-14.27h9.28z" stroke="#fc9432" stroke-width="5" fill="#fc9432"/><path d="M-2860 213.87a6 6 0 0 1 6-6h268a6 6 0 0 1 6 6v47.26a6 6 0 0 1-6 6h-268a6 6 0 0 1-6-6z" stroke="#b5d6ff" stroke-width="2" fill="#cfe4ff"/><use xlink:href="#q" transform="matrix(1,0,0,1,-2846,210.83703703703705) translate(46.49382716049382 31.27777777777778)"/><path d="M-2860 313.87a6 6 0 0 1 6-6h268a6 6 0 0 1 6 6v47.26a6 6 0 0 1-6 6h-268a6 6 0 0 1-6-6z" stroke="#00c2a8" stroke-width="2" fill="#d7faf5"/><use xlink:href="#r" transform="matrix(1,0,0,1,-2846,310.8370370370371) translate(70.50617283950618 31.27777777777778)"/><path d="M-3016.5 337.13h76.32a.18.18 0 0 1 .18.2.18.18 0 0 0 .18.17h53.96" stroke="#fc9432" stroke-width="5" fill="none"/><path d="M-3016.44 339.6h-2.56v-4.94h2.56z" stroke="#fc9432" stroke-width=".05" fill="#fc9432"/><path d="M-2869.1 337.5l-14.26 4.64v-9.27z" stroke="#fc9432" stroke-width="5" fill="#fc9432"/><path d="M-3180 406a6 6 0 0 1 6-6h148a6 6 0 0 1 6 6v48a6 6 0 0 1-6 6h-148a6 6 0 0 1-6-6z" stroke="#00c2a8" stroke-width="2" fill="#d7faf5"/><use xlink:href="#s" transform="matrix(1,0,0,1,-3172,403) translate(20.209876543209873 31.27777777777778)"/><path d="M-2576.5 337.5h31.5a6 6 0 0 1 6 6V424a6 6 0 0 1-6 6h-449.14" stroke="#fc9432" stroke-width="5" fill="none"/><path d="M-2576.44 339.98h-2.56v-4.95h2.56z" stroke="#fc9432" stroke-width=".05" fill="#fc9432"/><path d="M-3010.9 430l14.26-4.63v9.26z" stroke="#fc9432" stroke-width="5" fill="#fc9432"/><path d="M-3100 463.5v39.6a6 6 0 0 1-6 6h-78a6 6 0 0 0-6 6v17.23" stroke="#fc9432" stroke-width="5" fill="none"/><path d="M-3097.53 463.56h-4.94V461h4.94z" stroke="#fc9432" stroke-width=".05" fill="#fc9432"/><path d="M-3190 549.1l-4.64-14.27h9.28z" stroke="#fc9432" stroke-width="5" fill="#fc9432"/><path d="M-2720 270.63v11.4" stroke="#fe7070" stroke-width="5" fill="none"/><path d="M-2717.53 270.7h-4.94v-2.57h4.94z" stroke="#fe7070" stroke-width=".05" fill="#fe7070"/><path d="M-2720 298.78l-4.64-14.26h9.28z" stroke="#fe7070" stroke-width="5" fill="#fe7070"/><defs><path d="M195 0l-88-114-31 24V0H24v-248h52v113l112-113h60L142-143 257 0h-62" id="t"/><path d="M85 4C-2 5 27-109 22-190h50c7 57-23 150 33 157 60-5 35-97 40-157h50l1 190h-47c-2-12 1-28-3-38-12 25-28 42-61 42" id="u"/><path d="M115-3C79 11 28 4 28-45v-112H4v-33h27l15-45h31v45h36v33H77v99c-1 23 16 31 38 25v30" id="v"/><path d="M123 10C108 53 80 86 19 72V37c35 8 53-11 59-39L3-190h52l48 148c12-52 28-100 44-148h51" id="w"/><path d="M133-34C117-15 103 5 69 4 32 3 11-16 11-54c-1-60 55-63 116-61 1-26-3-47-28-47-18 1-26 9-28 27l-52-2c7-38 36-58 82-57s74 22 75 68l1 82c-1 14 12 18 25 15v27c-30 8-71 5-69-32zm-48 3c29 0 43-24 42-57-32 0-66-3-65 30 0 17 8 27 23 27" id="x"/><g id="b"><use transform="matrix(0.06666666666666667,0,0,0.06666666666666667,0,0)" xlink:href="#t"/><use transform="matrix(0.06666666666666667,0,0,0.06666666666666667,17.266666666666666,0)" xlink:href="#u"/><use transform="matrix(0.06666666666666667,0,0,0.06666666666666667,31.866666666666667,0)" xlink:href="#v"/><use transform="matrix(0.06666666666666667,0,0,0.06666666666666667,39.8,0)" xlink:href="#w"/><use transform="matrix(0.06666666666666667,0,0,0.06666666666666667,53.13333333333333,0)" xlink:href="#x"/></g><path d="M233-177c-1 41-23 64-60 70L243 0h-38l-65-103H63V0H30v-248c88 3 205-21 203 71zM63-129c60-2 137 13 137-47 0-61-80-42-137-45v92" id="y"/><path d="M100-194c63 0 86 42 84 106H49c0 40 14 67 53 68 26 1 43-12 49-29l28 8c-11 28-37 45-77 45C44 4 14-33 15-96c1-61 26-98 85-98zm52 81c6-60-76-77-97-28-3 7-6 17-6 28h103" id="z"/><path d="M115-194c55 1 70 41 70 98S169 2 115 4C84 4 66-9 55-30l1 105H24l-1-265h31l2 30c10-21 28-34 59-34zm-8 174c40 0 45-34 45-75s-6-73-45-74c-42 0-51 32-51 76 0 43 10 73 51 73" id="A"/><path d="M100-194c62-1 85 37 85 99 1 63-27 99-86 99S16-35 15-95c0-66 28-99 85-99zM99-20c44 1 53-31 53-75 0-43-8-75-51-75s-53 32-53 75 10 74 51 75" id="B"/><path d="M135-143c-3-34-86-38-87 0 15 53 115 12 119 90S17 21 10-45l28-5c4 36 97 45 98 0-10-56-113-15-118-90-4-57 82-63 122-42 12 7 21 19 24 35" id="C"/><path d="M24-231v-30h32v30H24zM24 0v-190h32V0H24" id="D"/><path d="M59-47c-2 24 18 29 38 22v24C64 9 27 4 27-40v-127H5v-23h24l9-43h21v43h35v23H59v120" id="E"/><path d="M114-163C36-179 61-72 57 0H25l-1-190h30c1 12-1 29 2 39 6-27 23-49 58-41v29" id="F"/><path d="M179-190L93 31C79 59 56 82 12 73V49c39 6 53-20 64-50L1-190h34L92-34l54-156h33" id="G"/><g id="c"><use transform="matrix(0.054320987654320974,0,0,0.054320987654320974,0,0)" xlink:href="#y"/><use transform="matrix(0.054320987654320974,0,0,0.054320987654320974,14.069135802469132,0)" xlink:href="#z"/><use transform="matrix(0.054320987654320974,0,0,0.054320987654320974,24.933333333333326,0)" xlink:href="#A"/><use transform="matrix(0.054320987654320974,0,0,0.054320987654320974,35.79753086419752,0)" xlink:href="#B"/><use transform="matrix(0.054320987654320974,0,0,0.054320987654320974,46.661728395061715,0)" xlink:href="#C"/><use transform="matrix(0.054320987654320974,0,0,0.054320987654320974,56.439506172839494,0)" xlink:href="#D"/><use transform="matrix(0.054320987654320974,0,0,0.054320987654320974,60.730864197530835,0)" xlink:href="#E"/><use transform="matrix(0.054320987654320974,0,0,0.054320987654320974,66.16296296296294,0)" xlink:href="#B"/><use transform="matrix(0.054320987654320974,0,0,0.054320987654320974,77.02716049382713,0)" xlink:href="#F"/><use transform="matrix(0.054320987654320974,0,0,0.054320987654320974,83.49135802469132,0)" xlink:href="#G"/></g><path d="M96-169c-40 0-48 33-48 73s9 75 48 75c24 0 41-14 43-38l32 2c-6 37-31 61-74 61-59 0-76-41-82-99-10-93 101-131 147-64 4 7 5 14 7 22l-32 3c-4-21-16-35-41-35" id="H"/><path d="M24 0v-261h32V0H24" id="I"/><path d="M141-36C126-15 110 5 73 4 37 3 15-17 15-53c-1-64 63-63 125-63 3-35-9-54-41-54-24 1-41 7-42 31l-33-3c5-37 33-52 76-52 45 0 72 20 72 64v82c-1 20 7 32 28 27v20c-31 9-61-2-59-35zM48-53c0 20 12 33 32 33 41-3 63-29 60-74-43 2-92-5-92 41" id="J"/><g id="d"><use transform="matrix(0.054320987654320974,0,0,0.054320987654320974,0,0)" xlink:href="#H"/><use transform="matrix(0.054320987654320974,0,0,0.054320987654320974,9.777777777777775,0)" xlink:href="#I"/><use transform="matrix(0.054320987654320974,0,0,0.054320987654320974,14.069135802469132,0)" xlink:href="#J"/><use transform="matrix(0.054320987654320974,0,0,0.054320987654320974,24.933333333333326,0)" xlink:href="#C"/><use transform="matrix(0.054320987654320974,0,0,0.054320987654320974,34.7111111111111,0)" xlink:href="#C"/></g><path fill="#3a414a" d="M30 0v-248h33v221h125V0H30" id="K"/><path fill="#3a414a" d="M100-194c63 0 86 42 84 106H49c0 40 14 67 53 68 26 1 43-12 49-29l28 8c-11 28-37 45-77 45C44 4 14-33 15-96c1-61 26-98 85-98zm52 81c6-60-76-77-97-28-3 7-6 17-6 28h103" id="L"/><path fill="#3a414a" d="M177-190C167-65 218 103 67 71c-23-6-38-20-44-43l32-5c15 47 100 32 89-28v-30C133-14 115 1 83 1 29 1 15-40 15-95c0-56 16-97 71-98 29-1 48 16 59 35 1-10 0-23 2-32h30zM94-22c36 0 50-32 50-73 0-42-14-75-50-75-39 0-46 34-46 75s6 73 46 73" id="M"/><path fill="#3a414a" d="M24-231v-30h32v30H24zM24 0v-190h32V0H24" id="N"/><path fill="#3a414a" d="M85-194c31 0 48 13 60 33l-1-100h32l1 261h-30c-2-10 0-23-3-31C134-8 116 4 85 4 32 4 16-35 15-94c0-66 23-100 70-100zm9 24c-40 0-46 34-46 75 0 40 6 74 45 74 42 0 51-32 51-76 0-42-9-74-50-73" id="O"/><path fill="#3a414a" d="M100-194c62-1 85 37 85 99 1 63-27 99-86 99S16-35 15-95c0-66 28-99 85-99zM99-20c44 1 53-31 53-75 0-43-8-75-51-75s-53 32-53 75 10 74 51 75zM51-211c8-23 27-35 38-54h36v5l-58 49H51zm61 0c8-23 27-35 38-54h36v5l-58 49h-16" id="P"/><path fill="#3a414a" d="M135-143c-3-34-86-38-87 0 15 53 115 12 119 90S17 21 10-45l28-5c4 36 97 45 98 0-10-56-113-15-118-90-4-57 82-63 122-42 12 7 21 19 24 35" id="Q"/><path fill="#3a414a" d="M115-194c53 0 69 39 70 98 0 66-23 100-70 100C84 3 66-7 56-30L54 0H23l1-261h32v101c10-23 28-34 59-34zm-8 174c40 0 45-34 45-75 0-40-5-75-45-74-42 0-51 32-51 76 0 43 10 73 51 73" id="R"/><g id="e"><use transform="matrix(0.06172839506172839,0,0,0.06172839506172839,0,0)" xlink:href="#K"/><use transform="matrix(0.06172839506172839,0,0,0.06172839506172839,12.345679012345679,0)" xlink:href="#L"/><use transform="matrix(0.06172839506172839,0,0,0.06172839506172839,24.691358024691358,0)" xlink:href="#M"/><use transform="matrix(0.06172839506172839,0,0,0.06172839506172839,37.03703703703704,0)" xlink:href="#N"/><use transform="matrix(0.06172839506172839,0,0,0.06172839506172839,41.91358024691358,0)" xlink:href="#O"/><use transform="matrix(0.06172839506172839,0,0,0.06172839506172839,54.25925925925926,0)" xlink:href="#P"/><use transform="matrix(0.06172839506172839,0,0,0.06172839506172839,66.60493827160494,0)" xlink:href="#Q"/><use transform="matrix(0.06172839506172839,0,0,0.06172839506172839,77.71604938271605,0)" xlink:href="#L"/><use transform="matrix(0.06172839506172839,0,0,0.06172839506172839,90.06172839506173,0)" xlink:href="#R"/><use transform="matrix(0.06172839506172839,0,0,0.06172839506172839,102.40740740740742,0)" xlink:href="#R"/></g><path fill="#3a414a" d="M143 0L79-87 56-68V0H24v-261h32v163l83-92h37l-77 82L181 0h-38" id="S"/><path fill="#3a414a" d="M84 4C-5 8 30-112 23-190h32v120c0 31 7 50 39 49 72-2 45-101 50-169h31l1 190h-30c-1-10 1-25-2-33-11 22-28 36-60 37" id="T"/><path fill="#3a414a" d="M59-47c-2 24 18 29 38 22v24C64 9 27 4 27-40v-127H5v-23h24l9-43h21v43h35v23H59v120" id="U"/><path fill="#3a414a" d="M179-190L93 31C79 59 56 82 12 73V49c39 6 53-20 64-50L1-190h34L92-34l54-156h33" id="V"/><path fill="#3a414a" d="M141-36C126-15 110 5 73 4 37 3 15-17 15-53c-1-64 63-63 125-63 3-35-9-54-41-54-24 1-41 7-42 31l-33-3c5-37 33-52 76-52 45 0 72 20 72 64v82c-1 20 7 32 28 27v20c-31 9-61-2-59-35zM48-53c0 20 12 33 32 33 41-3 63-29 60-74-43 2-92-5-92 41" id="W"/><g id="f"><use transform="matrix(0.06172839506172839,0,0,0.06172839506172839,0,0)" xlink:href="#S"/><use transform="matrix(0.06172839506172839,0,0,0.06172839506172839,11.11111111111111,0)" xlink:href="#T"/><use transform="matrix(0.06172839506172839,0,0,0.06172839506172839,23.45679012345679,0)" xlink:href="#U"/><use transform="matrix(0.06172839506172839,0,0,0.06172839506172839,29.62962962962963,0)" xlink:href="#V"/><use transform="matrix(0.06172839506172839,0,0,0.06172839506172839,40.74074074074074,0)" xlink:href="#W"/></g><path d="M76-208v77h127v40H76V0H24v-248h183v40H76" id="X"/><path d="M25-224v-37h50v37H25zM75 22c2 45-34 59-81 51V38c22 5 31-5 31-27v-201h50V22" id="Y"/><g id="g"><use transform="matrix(0.06666666666666667,0,0,0.06666666666666667,0,0)" xlink:href="#t"/><use transform="matrix(0.06666666666666667,0,0,0.06666666666666667,17.266666666666666,0)" xlink:href="#u"/><use transform="matrix(0.06666666666666667,0,0,0.06666666666666667,31.866666666666667,0)" xlink:href="#v"/><use transform="matrix(0.06666666666666667,0,0,0.06666666666666667,39.8,0)" xlink:href="#w"/><use transform="matrix(0.06666666666666667,0,0,0.06666666666666667,53.13333333333333,0)" xlink:href="#x"/><use transform="matrix(0.06666666666666667,0,0,0.06666666666666667,66.46666666666667,0)" xlink:href="#X"/><use transform="matrix(0.06666666666666667,0,0,0.06666666666666667,81.06666666666666,0)" xlink:href="#x"/><use transform="matrix(0.06666666666666667,0,0,0.06666666666666667,94.4,0)" xlink:href="#Y"/><use transform="matrix(0.06666666666666667,0,0,0.06666666666666667,101.06666666666666,0)" xlink:href="#v"/><use transform="matrix(0.06666666666666667,0,0,0.06666666666666667,109,0)" xlink:href="#x"/></g><path fill="#3a414a" d="M30-248c87 1 191-15 191 75 0 78-77 80-158 76V0H30v-248zm33 125c57 0 124 11 124-50 0-59-68-47-124-48v98" id="Z"/><path fill="#3a414a" d="M114-163C36-179 61-72 57 0H25l-1-190h30c1 12-1 29 2 39 6-27 23-49 58-41v29" id="aa"/><path fill="#3a414a" d="M100-194c62-1 85 37 85 99 1 63-27 99-86 99S16-35 15-95c0-66 28-99 85-99zM99-20c44 1 53-31 53-75 0-43-8-75-51-75s-53 32-53 75 10 74 51 75" id="ab"/><path fill="#3a414a" d="M210-169c-67 3-38 105-44 169h-31v-121c0-29-5-50-35-48C34-165 62-65 56 0H25l-1-190h30c1 10-1 24 2 32 10-44 99-50 107 0 11-21 27-35 58-36 85-2 47 119 55 194h-31v-121c0-29-5-49-35-48" id="ac"/><g id="h"><use transform="matrix(0.06172839506172839,0,0,0.06172839506172839,0,0)" xlink:href="#Z"/><use transform="matrix(0.06172839506172839,0,0,0.06172839506172839,14.814814814814813,0)" xlink:href="#aa"/><use transform="matrix(0.06172839506172839,0,0,0.06172839506172839,22.160493827160494,0)" xlink:href="#ab"/><use transform="matrix(0.06172839506172839,0,0,0.06172839506172839,34.50617283950617,0)" xlink:href="#M"/><use transform="matrix(0.06172839506172839,0,0,0.06172839506172839,46.85185185185185,0)" xlink:href="#aa"/><use transform="matrix(0.06172839506172839,0,0,0.06172839506172839,54.197530864197525,0)" xlink:href="#W"/><use transform="matrix(0.06172839506172839,0,0,0.06172839506172839,66.5432098765432,0)" xlink:href="#ac"/></g><path fill="#3a414a" d="M100-194c63 0 86 42 84 106H49c0 40 14 67 53 68 26 1 43-12 49-29l28 8c-11 28-37 45-77 45C44 4 14-33 15-96c1-61 26-98 85-98zm52 81c6-60-76-77-97-28-3 7-6 17-6 28h103zm-74-98c8-23 27-35 38-54h36v5l-58 49H78" id="ad"/><path fill="#3a414a" d="M9 0v-24l116-142H16v-24h144v24L44-24h123V0H9" id="ae"/><path fill="#3a414a" d="M117-194c89-4 53 116 60 194h-32v-121c0-31-8-49-39-48C34-167 62-67 57 0H25l-1-190h30c1 10-1 24 2 32 11-22 29-35 61-36" id="af"/><path fill="#3a414a" d="M141-36C126-15 110 5 73 4 37 3 15-17 15-53c-1-64 63-63 125-63 3-35-9-54-41-54-24 1-41 7-42 31l-33-3c5-37 33-52 76-52 45 0 72 20 72 64v82c-1 20 7 32 28 27v20c-31 9-61-2-59-35zM48-53c0 20 12 33 32 33 41-3 63-29 60-74-43 2-92-5-92 41zm25-158c8-23 27-35 38-54h36v5l-58 49H73" id="ag"/><path fill="#3a414a" d="M24 0v-261h32V0H24" id="ah"/><g id="i"><use transform="matrix(0.06172839506172839,0,0,0.06172839506172839,0,0)" xlink:href="#S"/><use transform="matrix(0.06172839506172839,0,0,0.06172839506172839,11.11111111111111,0)" xlink:href="#ad"/><use transform="matrix(0.06172839506172839,0,0,0.06172839506172839,23.45679012345679,0)" xlink:href="#Q"/><use transform="matrix(0.06172839506172839,0,0,0.06172839506172839,34.5679012345679,0)" xlink:href="#ae"/><use transform="matrix(0.06172839506172839,0,0,0.06172839506172839,45.67901234567901,0)" xlink:href="#L"/><use transform="matrix(0.06172839506172839,0,0,0.06172839506172839,58.02469135802469,0)" xlink:href="#af"/><use transform="matrix(0.06172839506172839,0,0,0.06172839506172839,70.37037037037037,0)" xlink:href="#ag"/><use transform="matrix(0.06172839506172839,0,0,0.06172839506172839,82.71604938271605,0)" xlink:href="#ah"/><use transform="matrix(0.06172839506172839,0,0,0.06172839506172839,87.5925925925926,0)" xlink:href="#ah"/></g><path fill="#3a414a" d="M18-100v-36l175-74v27L42-118l151 64v27" id="ai"/><path fill="#3a414a" d="M194 0L95-120 63-95V0H30v-248h33v124l119-124h40L117-140 236 0h-42" id="aj"/><path fill="#3a414a" d="M18-27v-27l151-64-151-65v-27l175 74v36" id="ak"/><g id="j"><use transform="matrix(0.06172839506172839,0,0,0.06172839506172839,0,0)" xlink:href="#ah"/><use transform="matrix(0.06172839506172839,0,0,0.06172839506172839,4.876543209876543,0)" xlink:href="#N"/><use transform="matrix(0.06172839506172839,0,0,0.06172839506172839,9.753086419753085,0)" xlink:href="#Q"/><use transform="matrix(0.06172839506172839,0,0,0.06172839506172839,20.864197530864196,0)" xlink:href="#U"/><use transform="matrix(0.06172839506172839,0,0,0.06172839506172839,27.037037037037035,0)" xlink:href="#ai"/><use transform="matrix(0.06172839506172839,0,0,0.06172839506172839,40,0)" xlink:href="#aj"/><use transform="matrix(0.06172839506172839,0,0,0.06172839506172839,54.81481481481481,0)" xlink:href="#T"/><use transform="matrix(0.06172839506172839,0,0,0.06172839506172839,67.1604938271605,0)" xlink:href="#U"/><use transform="matrix(0.06172839506172839,0,0,0.06172839506172839,73.33333333333333,0)" xlink:href="#V"/><use transform="matrix(0.06172839506172839,0,0,0.06172839506172839,84.44444444444444,0)" xlink:href="#W"/><use transform="matrix(0.06172839506172839,0,0,0.06172839506172839,96.79012345679013,0)" xlink:href="#ak"/></g><path fill="#3a414a" d="M96-169c-40 0-48 33-48 73s9 75 48 75c24 0 41-14 43-38l32 2c-6 37-31 61-74 61-59 0-76-41-82-99-10-93 101-131 147-64 4 7 5 14 7 22l-32 3c-4-21-16-35-41-35" id="al"/><g id="k"><use transform="matrix(0.06172839506172839,0,0,0.06172839506172839,0,0)" xlink:href="#al"/><use transform="matrix(0.06172839506172839,0,0,0.06172839506172839,11.11111111111111,0)" xlink:href="#ab"/><use transform="matrix(0.06172839506172839,0,0,0.06172839506172839,23.45679012345679,0)" xlink:href="#af"/><use transform="matrix(0.06172839506172839,0,0,0.06172839506172839,35.80246913580247,0)" xlink:href="#Q"/><use transform="matrix(0.06172839506172839,0,0,0.06172839506172839,46.91358024691358,0)" xlink:href="#ab"/><use transform="matrix(0.06172839506172839,0,0,0.06172839506172839,59.25925925925926,0)" xlink:href="#ah"/><use transform="matrix(0.06172839506172839,0,0,0.06172839506172839,64.1358024691358,0)" xlink:href="#L"/></g><path fill="#3a414a" d="M206 0h-36l-40-164L89 0H53L-1-190h32L70-26l43-164h34l41 164 42-164h31" id="am"/><g id="l"><use transform="matrix(0.06172839506172839,0,0,0.06172839506172839,0,0)" xlink:href="#am"/><use transform="matrix(0.06172839506172839,0,0,0.06172839506172839,15.987654320987653,0)" xlink:href="#aa"/><use transform="matrix(0.06172839506172839,0,0,0.06172839506172839,23.333333333333332,0)" xlink:href="#N"/><use transform="matrix(0.06172839506172839,0,0,0.06172839506172839,28.209876543209873,0)" xlink:href="#U"/><use transform="matrix(0.06172839506172839,0,0,0.06172839506172839,34.382716049382715,0)" xlink:href="#L"/><use transform="matrix(0.06172839506172839,0,0,0.06172839506172839,46.72839506172839,0)" xlink:href="#ah"/><use transform="matrix(0.06172839506172839,0,0,0.06172839506172839,51.60493827160494,0)" xlink:href="#N"/><use transform="matrix(0.06172839506172839,0,0,0.06172839506172839,56.48148148148148,0)" xlink:href="#af"/><use transform="matrix(0.06172839506172839,0,0,0.06172839506172839,68.82716049382717,0)" xlink:href="#L"/></g><path fill="#3a414a" d="M33 0v-38h34V0H33" id="an"/><path fill="#3a414a" d="M141 0L90-78 38 0H4l68-98-65-92h35l48 74 47-74h35l-64 92 68 98h-35" id="ao"/><g id="m"><use transform="matrix(0.06172839506172839,0,0,0.06172839506172839,0,0)" xlink:href="#S"/><use transform="matrix(0.06172839506172839,0,0,0.06172839506172839,11.11111111111111,0)" xlink:href="#T"/><use transform="matrix(0.06172839506172839,0,0,0.06172839506172839,23.45679012345679,0)" xlink:href="#U"/><use transform="matrix(0.06172839506172839,0,0,0.06172839506172839,29.62962962962963,0)" xlink:href="#V"/><use transform="matrix(0.06172839506172839,0,0,0.06172839506172839,40.74074074074074,0)" xlink:href="#W"/><use transform="matrix(0.06172839506172839,0,0,0.06172839506172839,53.08641975308642,0)" xlink:href="#an"/><use transform="matrix(0.06172839506172839,0,0,0.06172839506172839,59.25925925925926,0)" xlink:href="#W"/><use transform="matrix(0.06172839506172839,0,0,0.06172839506172839,71.60493827160494,0)" xlink:href="#M"/><use transform="matrix(0.06172839506172839,0,0,0.06172839506172839,83.95061728395062,0)" xlink:href="#L"/><use transform="matrix(0.06172839506172839,0,0,0.06172839506172839,96.2962962962963,0)" xlink:href="#an"/><use transform="matrix(0.06172839506172839,0,0,0.06172839506172839,102.46913580246914,0)" xlink:href="#ac"/><use transform="matrix(0.06172839506172839,0,0,0.06172839506172839,120.92592592592592,0)" xlink:href="#W"/><use transform="matrix(0.06172839506172839,0,0,0.06172839506172839,133.2716049382716,0)" xlink:href="#ao"/></g><path fill="#3a414a" d="M33-154v-36h34v36H33zM33 0v-36h34V0H33" id="ap"/><g id="n"><use transform="matrix(0.06172839506172839,0,0,0.06172839506172839,0,0)" xlink:href="#ap"/><use transform="matrix(0.06172839506172839,0,0,0.06172839506172839,6.172839506172839,0)" xlink:href="#ap"/><use transform="matrix(0.06172839506172839,0,0,0.06172839506172839,12.345679012345679,0)" xlink:href="#S"/><use transform="matrix(0.06172839506172839,0,0,0.06172839506172839,23.45679012345679,0)" xlink:href="#T"/><use transform="matrix(0.06172839506172839,0,0,0.06172839506172839,35.80246913580247,0)" xlink:href="#U"/><use transform="matrix(0.06172839506172839,0,0,0.06172839506172839,41.97530864197531,0)" xlink:href="#V"/><use transform="matrix(0.06172839506172839,0,0,0.06172839506172839,53.08641975308642,0)" xlink:href="#W"/></g><path fill="#3a414a" d="M108 0H70L1-190h34L89-25l56-165h34" id="aq"/><g id="o"><use transform="matrix(0.06172839506172839,0,0,0.06172839506172839,0,0)" xlink:href="#S"/><use transform="matrix(0.06172839506172839,0,0,0.06172839506172839,11.11111111111111,0)" xlink:href="#T"/><use transform="matrix(0.06172839506172839,0,0,0.06172839506172839,23.45679012345679,0)" xlink:href="#U"/><use transform="matrix(0.06172839506172839,0,0,0.06172839506172839,29.62962962962963,0)" xlink:href="#V"/><use transform="matrix(0.06172839506172839,0,0,0.06172839506172839,40.74074074074074,0)" xlink:href="#W"/><use transform="matrix(0.06172839506172839,0,0,0.06172839506172839,53.08641975308642,0)" xlink:href="#an"/><use transform="matrix(0.06172839506172839,0,0,0.06172839506172839,59.25925925925926,0)" xlink:href="#af"/><use transform="matrix(0.06172839506172839,0,0,0.06172839506172839,71.60493827160494,0)" xlink:href="#L"/><use transform="matrix(0.06172839506172839,0,0,0.06172839506172839,83.95061728395062,0)" xlink:href="#aq"/></g><path fill="#3a414a" d="M101-234c-31-9-42 10-38 44h38v23H63V0H32v-167H5v-23h27c-7-52 17-82 69-68v24" id="ar"/><path fill="#3a414a" d="M24-231v-30h32v30H24zM-9 49c24 4 33-6 33-30v-209h32V24c2 40-23 58-65 49V49" id="as"/><path fill="#3a414a" d="M-5 72V49h209v23H-5" id="at"/><g id="p"><use transform="matrix(0.06172839506172839,0,0,0.06172839506172839,0,0)" xlink:href="#S"/><use transform="matrix(0.06172839506172839,0,0,0.06172839506172839,11.11111111111111,0)" xlink:href="#T"/><use transform="matrix(0.06172839506172839,0,0,0.06172839506172839,23.45679012345679,0)" xlink:href="#U"/><use transform="matrix(0.06172839506172839,0,0,0.06172839506172839,29.62962962962963,0)" xlink:href="#V"/><use transform="matrix(0.06172839506172839,0,0,0.06172839506172839,40.74074074074074,0)" xlink:href="#W"/><use transform="matrix(0.06172839506172839,0,0,0.06172839506172839,53.08641975308642,0)" xlink:href="#an"/><use transform="matrix(0.06172839506172839,0,0,0.06172839506172839,59.25925925925926,0)" xlink:href="#ar"/><use transform="matrix(0.06172839506172839,0,0,0.06172839506172839,65.4320987654321,0)" xlink:href="#W"/><use transform="matrix(0.06172839506172839,0,0,0.06172839506172839,77.77777777777779,0)" xlink:href="#as"/><use transform="matrix(0.06172839506172839,0,0,0.06172839506172839,82.65432098765433,0)" xlink:href="#U"/><use transform="matrix(0.06172839506172839,0,0,0.06172839506172839,88.82716049382717,0)" xlink:href="#W"/><use transform="matrix(0.06172839506172839,0,0,0.06172839506172839,101.17283950617285,0)" xlink:href="#at"/><use transform="matrix(0.06172839506172839,0,0,0.06172839506172839,113.51851851851853,0)" xlink:href="#N"/><use transform="matrix(0.06172839506172839,0,0,0.06172839506172839,118.39506172839508,0)" xlink:href="#O"/></g><path fill="#3a414a" d="M63-220v92h138v28H63V0H30v-248h175v28H63" id="au"/><g id="q"><use transform="matrix(0.06172839506172839,0,0,0.06172839506172839,0,0)" xlink:href="#ah"/><use transform="matrix(0.06172839506172839,0,0,0.06172839506172839,4.876543209876543,0)" xlink:href="#N"/><use transform="matrix(0.06172839506172839,0,0,0.06172839506172839,9.753086419753085,0)" xlink:href="#Q"/><use transform="matrix(0.06172839506172839,0,0,0.06172839506172839,20.864197530864196,0)" xlink:href="#U"/><use transform="matrix(0.06172839506172839,0,0,0.06172839506172839,27.037037037037035,0)" xlink:href="#ai"/><use transform="matrix(0.06172839506172839,0,0,0.06172839506172839,40,0)" xlink:href="#aj"/><use transform="matrix(0.06172839506172839,0,0,0.06172839506172839,54.81481481481481,0)" xlink:href="#T"/><use transform="matrix(0.06172839506172839,0,0,0.06172839506172839,67.1604938271605,0)" xlink:href="#U"/><use transform="matrix(0.06172839506172839,0,0,0.06172839506172839,73.33333333333333,0)" xlink:href="#V"/><use transform="matrix(0.06172839506172839,0,0,0.06172839506172839,84.44444444444444,0)" xlink:href="#W"/><use transform="matrix(0.06172839506172839,0,0,0.06172839506172839,96.79012345679013,0)" xlink:href="#au"/><use transform="matrix(0.06172839506172839,0,0,0.06172839506172839,110.30864197530865,0)" xlink:href="#W"/><use transform="matrix(0.06172839506172839,0,0,0.06172839506172839,122.65432098765433,0)" xlink:href="#as"/><use transform="matrix(0.06172839506172839,0,0,0.06172839506172839,127.53086419753089,0)" xlink:href="#U"/><use transform="matrix(0.06172839506172839,0,0,0.06172839506172839,133.70370370370372,0)" xlink:href="#W"/><use transform="matrix(0.06172839506172839,0,0,0.06172839506172839,146.0493827160494,0)" xlink:href="#ak"/></g><path fill="#3a414a" d="M143 4C61 4 22-44 18-125c-5-107 100-154 193-111 17 8 29 25 37 43l-32 9c-13-25-37-40-76-40-61 0-88 39-88 99 0 61 29 100 91 101 35 0 62-11 79-27v-45h-74v-28h105v86C228-13 192 4 143 4" id="av"/><path fill="#3a414a" d="M160-131c35 5 61 23 61 61C221 17 115-2 30 0v-248c76 3 177-17 177 60 0 33-19 50-47 57zm-97-11c50-1 110 9 110-42 0-47-63-36-110-37v79zm0 115c55-2 124 14 124-45 0-56-70-42-124-44v89" id="aw"/><path fill="#3a414a" d="M33 0v-248h34V0H33" id="ax"/><g id="r"><use transform="matrix(0.06172839506172839,0,0,0.06172839506172839,0,0)" xlink:href="#av"/><use transform="matrix(0.06172839506172839,0,0,0.06172839506172839,17.28395061728395,0)" xlink:href="#L"/><use transform="matrix(0.06172839506172839,0,0,0.06172839506172839,29.629629629629626,0)" xlink:href="#U"/><use transform="matrix(0.06172839506172839,0,0,0.06172839506172839,35.80246913580247,0)" xlink:href="#au"/><use transform="matrix(0.06172839506172839,0,0,0.06172839506172839,49.32098765432099,0)" xlink:href="#W"/><use transform="matrix(0.06172839506172839,0,0,0.06172839506172839,61.666666666666664,0)" xlink:href="#as"/><use transform="matrix(0.06172839506172839,0,0,0.06172839506172839,66.5432098765432,0)" xlink:href="#aw"/><use transform="matrix(0.06172839506172839,0,0,0.06172839506172839,81.35802469135801,0)" xlink:href="#V"/><use transform="matrix(0.06172839506172839,0,0,0.06172839506172839,92.46913580246913,0)" xlink:href="#ax"/><use transform="matrix(0.06172839506172839,0,0,0.06172839506172839,98.64197530864196,0)" xlink:href="#O"/></g><g id="s"><use transform="matrix(0.06172839506172839,0,0,0.06172839506172839,0,0)" xlink:href="#ar"/><use transform="matrix(0.06172839506172839,0,0,0.06172839506172839,6.172839506172839,0)" xlink:href="#W"/><use transform="matrix(0.06172839506172839,0,0,0.06172839506172839,18.51851851851852,0)" xlink:href="#as"/><use transform="matrix(0.06172839506172839,0,0,0.06172839506172839,23.395061728395063,0)" xlink:href="#U"/><use transform="matrix(0.06172839506172839,0,0,0.06172839506172839,29.567901234567902,0)" xlink:href="#W"/><use transform="matrix(0.06172839506172839,0,0,0.06172839506172839,41.91358024691358,0)" xlink:href="#an"/><use transform="matrix(0.06172839506172839,0,0,0.06172839506172839,48.086419753086425,0)" xlink:href="#af"/><use transform="matrix(0.06172839506172839,0,0,0.06172839506172839,60.4320987654321,0)" xlink:href="#W"/><use transform="matrix(0.06172839506172839,0,0,0.06172839506172839,72.77777777777779,0)" xlink:href="#ac"/><use transform="matrix(0.06172839506172839,0,0,0.06172839506172839,91.23456790123457,0)" xlink:href="#L"/></g></defs></g></svg>