<svg xmlns="http://www.w3.org/2000/svg" xmlns:xlink="http://www.w3.org/1999/xlink" xmlns:lucid="lucid" width="2902" height="2461.37"><g transform="translate(4341.000000005989 1860.374074074074)" lucid:page-tab-id="0_0"><path d="M-3360-1417.53v-61.07a6 6 0 0 1 6-6h308a6 6 0 0 1 6 6v61.07z" stroke="#282c33" stroke-width="2" fill="#fff"/><path d="M-3040-1417.53v195.2a6 6 0 0 1-6 6h-308a6 6 0 0 1-6-6v-195.2z" stroke="#282c33" stroke-width="2" fill="none"/><use xlink:href="#a" transform="matrix(1,0,0,1,-3360,-1484.601851851852) translate(50.5 29.200000000000003)"/><use xlink:href="#b" transform="matrix(1,0,0,1,-3360,-1484.601851851852) translate(57.166666666666664 29.200000000000003)"/><use xlink:href="#c" transform="matrix(1,0,0,1,-3360,-1484.601851851852) translate(110.62222222222223 64.44444444444444)"/><use xlink:href="#d" transform="matrix(1,0,0,1,-3360,-1484.601851851852) translate(164.88888888888889 64.44444444444444)"/><path d="M-2840-1397.34v-81.26a6 6 0 0 1 6-6h308a6 6 0 0 1 6 6v81.26z" stroke="#282c33" stroke-width="2" fill="#fff"/><path d="M-2520-1397.34v446.65a6 6 0 0 1-6 6h-308a6 6 0 0 1-6-6v-446.63z" stroke="#282c33" stroke-width="2" fill="none"/><use xlink:href="#a" transform="matrix(1,0,0,1,-2840,-1484.601851851852) translate(86.23333333333335 37.06666666666667)"/><use xlink:href="#e" transform="matrix(1,0,0,1,-2840,-1484.601851851852) translate(92.90000000000002 37.06666666666667)"/><use xlink:href="#f" transform="matrix(1,0,0,1,-2840,-1484.601851851852) translate(137.75555555555556 72.31111111111112)"/><path d="M-2320-1728.13v-71.58a6 6 0 0 1 6-6h308a6 6 0 0 1 6 6v71.57z" stroke="#282c33" stroke-width="2" fill="#fff"/><path d="M-2000-1728.13v226.73a6 6 0 0 1-6 6h-308a6 6 0 0 1-6-6v-226.73z" stroke="#282c33" stroke-width="2" fill="none"/><use xlink:href="#a" transform="matrix(1,0,0,1,-2320,-1805.7074074074073) translate(95.5 32.06666666666667)"/><use xlink:href="#g" transform="matrix(1,0,0,1,-2320,-1805.7074074074073) translate(102.16666666666667 32.06666666666667)"/><use xlink:href="#h" transform="matrix(1,0,0,1,-2320,-1805.7074074074073) translate(88.40493827160496 67.31111111111112)"/><use xlink:href="#d" transform="matrix(1,0,0,1,-2320,-1805.7074074074073) translate(187.10617283950614 67.31111111111112)"/><path d="M-2320-1352.73V-1434a6 6 0 0 1 6-6h308a6 6 0 0 1 6 6v81.27z" stroke="#282c33" stroke-width="2" fill="#fff"/><path d="M-2000-1352.73V114a6 6 0 0 1-6 6h-308a6 6 0 0 1-6-6v-1466.73z" stroke="#282c33" stroke-width="2" fill="none"/><use xlink:href="#a" transform="matrix(1,0,0,1,-2320,-1440) translate(123.43333333333334 37.06666666666667)"/><use xlink:href="#i" transform="matrix(1,0,0,1,-2320,-1440) translate(130.1 37.06666666666667)"/><use xlink:href="#h" transform="matrix(1,0,0,1,-2320,-1440) translate(88.40493827160496 72.31111111111112)"/><use xlink:href="#d" transform="matrix(1,0,0,1,-2320,-1440) translate(187.10617283950614 72.31111111111112)"/><path d="M-2300-1003.76V-1074a6 6 0 0 1 6-6h268a6 6 0 0 1 6 6v70.24z" stroke="#00c2a8" stroke-width="2" fill="#d7faf5"/><path d="M-2020-1003.76v222.7a6 6 0 0 1-6 6h-268a6 6 0 0 1-6-6v-222.7z" stroke="#00c2a8" stroke-width="2" fill="none"/><use xlink:href="#j" transform="matrix(1,0,0,1,-2300,-1080) translate(46.88271604938271 17.77777777777778)"/><use xlink:href="#k" transform="matrix(1,0,0,1,-2300,-1080) translate(108.61111111111111 17.77777777777778)"/><use xlink:href="#l" transform="matrix(1,0,0,1,-2300,-1080) translate(176.38888888888889 17.77777777777778)"/><use xlink:href="#m" transform="matrix(1,0,0,1,-2300,-1080) translate(5.493827160493822 44.44444444444444)"/><use xlink:href="#n" transform="matrix(1,0,0,1,-2300,-1080) translate(107.90123456790123 44.44444444444444)"/><use xlink:href="#o" transform="matrix(1,0,0,1,-2300,-1080) translate(162.22222222222223 44.44444444444444)"/><use xlink:href="#p" transform="matrix(1,0,0,1,-2300,-1080) translate(221.4814814814815 44.44444444444444)"/><use xlink:href="#q" transform="matrix(1,0,0,1,-2300,-1080) translate(262.1604938271605 44.44444444444444)"/><use xlink:href="#r" transform="matrix(1,0,0,1,-2300,-1080) translate(84.50617283950616 71.11111111111111)"/><path d="M-2300-707.7v-35.65a6 6 0 0 1 6-6h268a6 6 0 0 1 6 6v35.66z" stroke="#00c2a8" stroke-width="2" fill="#d7faf5"/><path d="M-2020-707.7V-426a6 6 0 0 1-6 6h-268a6 6 0 0 1-6-6v-281.7z" stroke="#00c2a8" stroke-width="2" fill="none"/><use xlink:href="#s" transform="matrix(1,0,0,1,-2300,-749.3543209876547) translate(11.080246913580254 25.444444444444443)"/><use xlink:href="#t" transform="matrix(1,0,0,1,-2300,-749.3543209876547) translate(139.47530864197535 25.444444444444443)"/><use xlink:href="#u" transform="matrix(1,0,0,1,-2300,-749.3543209876547) translate(231.88271604938274 25.444444444444443)"/><path d="M-2300-338.33V-374a6 6 0 0 1 6-6h268a6 6 0 0 1 6 6v35.67z" stroke="#00c2a8" stroke-width="2" fill="#d7faf5"/><path d="M-2020-338.33V14a6 6 0 0 1-6 6h-268a6 6 0 0 1-6-6v-352.33z" stroke="#00c2a8" stroke-width="2" fill="none"/><use xlink:href="#v" transform="matrix(1,0,0,1,-2300,-380) translate(71.57407407407408 25.444444444444443)"/><path d="M-2320 287.27V206a6 6 0 0 1 6-6h308a6 6 0 0 1 6 6v81.27z" stroke="#282c33" stroke-width="2" fill="#fff"/><path d="M-2000 287.27V594a6 6 0 0 1-6 6h-308a6 6 0 0 1-6-6V287.27z" stroke="#282c33" stroke-width="2" fill="none"/><use xlink:href="#a" transform="matrix(1,0,0,1,-2320,200) translate(101.46666666666667 37.06666666666667)"/><use xlink:href="#w" transform="matrix(1,0,0,1,-2320,200) translate(108.13333333333334 37.06666666666667)"/><use xlink:href="#h" transform="matrix(1,0,0,1,-2320,200) translate(88.40493827160496 72.31111111111112)"/><use xlink:href="#d" transform="matrix(1,0,0,1,-2320,200) translate(187.10617283950614 72.31111111111112)"/><path d="M-3340-1391.34a6 6 0 0 1 6-6h268a6 6 0 0 1 6 6v48a6 6 0 0 1-6 6h-268a6 6 0 0 1-6-6z" stroke="#b5d6ff" stroke-width="2" fill="#cfe4ff"/><use xlink:href="#x" transform="matrix(1,0,0,1,-3326,-1394.3351851851853) translate(0 31.275)"/><path d="M-3340-1312.9a6 6 0 0 1 6-6h268a6 6 0 0 1 6 6v48a6 6 0 0 1-6 6h-268a6 6 0 0 1-6-6z" stroke="#8ee895" stroke-width="2" fill="#c3f7c8"/><use xlink:href="#y" transform="matrix(1,0,0,1,-3326,-1315.9101851851851) translate(58.83950617283952 31.27777777777778)"/><use xlink:href="#z" transform="matrix(1,0,0,1,-3326,-1315.9101851851851) translate(150.01234567901236 31.27777777777778)"/><path d="M-2820-1203.25a6 6 0 0 1 6-6h268a6 6 0 0 1 6 6v46.5a6 6 0 0 1-6 6h-268a6 6 0 0 1-6-6z" stroke="#00c2a8" stroke-width="2" fill="#d7faf5"/><use xlink:href="#A" transform="matrix(1,0,0,1,-2806,-1206.325) translate(32.29629629629629 31.02777777777778)"/><use xlink:href="#B" transform="matrix(1,0,0,1,-2806,-1206.325) translate(129.64197530864197 31.02777777777778)"/><path d="M-2820-1374a6 6 0 0 1 6-6h268a6 6 0 0 1 6 6v28a6 6 0 0 1-6 6h-268a6 6 0 0 1-6-6z" stroke="#b5d6ff" stroke-width="2" fill="#cfe4ff"/><use xlink:href="#C" transform="matrix(1,0,0,1,-2806,-1378) translate(19.98148148148151 22.27777777777778)"/><path d="M-4340-788a12 12 0 0 1 12-12h636a12 12 0 0 1 12 12v656a12 12 0 0 1-12 12h-636a12 12 0 0 1-12-12z" stroke="#dfe3e8" stroke-width="2" fill="#fff"/><path d="M-4239.3-618.6c0-1.22 1-2.22 2.22-2.22h54.8c1.22 0 2.2 1 2.2 2.22v40c0 1.2-.98 2.2-2.2 2.2h-54.8c-1.23 0-2.22-1-2.22-2.22z" stroke="#00c2a8" stroke-width="1.05" fill="#d7faf5"/><path d="M-4239.3-523.82c0-1.23 1-2.22 2.22-2.22h54.8c1.22 0 2.2 1 2.2 2.22v39.98c0 1.22-.98 2.22-2.2 2.22h-54.8c-1.23 0-2.22-1-2.22-2.22z" stroke="#b5d6ff" stroke-width="1.05" fill="#cfe4ff"/><path d="M-4239.3-429.05c0-1.23 1-2.22 2.22-2.22h54.8c1.22 0 2.2 1 2.2 2.22v39.98c0 1.23-.98 2.22-2.2 2.22h-54.8c-1.23 0-2.22-1-2.22-2.22z" stroke="#8ee895" stroke-width="1.05" fill="#c3f7c8"/><path d="M-4174.15-314.3c0 19.64-15.9 35.55-35.54 35.55-19.6 0-35.53-15.9-35.53-35.54 0-19.6 15.9-35.53 35.54-35.53s35.55 15.92 35.55 35.54z" stroke="#000" stroke-opacity=".25" fill="#fc9432"/><path d="M-4174.15-219.5c0 19.62-15.9 35.53-35.54 35.53-19.6 0-35.53-15.9-35.53-35.54s15.9-35.55 35.54-35.55 35.55 15.9 35.55 35.54z" stroke="#000" stroke-opacity=".25" fill="#fe7070"/><use xlink:href="#D" transform="matrix(1,0,0,1,-4245.226480836237,-728.9198606271777) translate(0 42.85671863400148)"/><use xlink:href="#E" transform="matrix(1,0,0,1,-4245.226480836237,-728.9198606271777) translate(133.97079930710223 42.85671863400148)"/><use xlink:href="#F" transform="matrix(1,0,0,1,-4138.606271777004,-634.1463414634146) translate(0 43.23003499840917)"/><use xlink:href="#G" transform="matrix(1,0,0,1,-4138.606271777004,-539.3728222996515) translate(0 43.23003499840917)"/><use xlink:href="#H" transform="matrix(1,0,0,1,-4138.606271777004,-444.5993031358885) translate(0 43.23003499840917)"/><use xlink:href="#I" transform="matrix(1,0,0,1,-4138.606271777004,-349.8257839721254) translate(0 43.23003499840917)"/><use xlink:href="#J" transform="matrix(1,0,0,1,-4138.606271777004,-349.8257839721254) translate(153.13437268002968 43.23003499840917)"/><use xlink:href="#K" transform="matrix(1,0,0,1,-4138.606271777004,-255.05226480836234) translate(0 43.23003499840917)"/><use xlink:href="#J" transform="matrix(1,0,0,1,-4138.606271777004,-255.05226480836234) translate(74.82504330611236 43.23003499840917)"/><path d="M-2820-1319.86a6 6 0 0 1 6-6h268a6 6 0 0 1 6 6v28a6 6 0 0 1-6 6h-268a6 6 0 0 1-6-6z" stroke="#b5d6ff" stroke-width="2" fill="#cfe4ff"/><use xlink:href="#L" transform="matrix(1,0,0,1,-2806,-1323.8592592592593) translate(44.611111111111114 22.27777777777778)"/><path d="M-2820-1265.72a6 6 0 0 1 6-6h268a6 6 0 0 1 6 6v28a6 6 0 0 1-6 6h-268a6 6 0 0 1-6-6z" stroke="#b5d6ff" stroke-width="2" fill="#cfe4ff"/><use xlink:href="#M" transform="matrix(1,0,0,1,-2806,-1269.7185185185185) translate(24.8888888888889 22.27777777777778)"/><path d="M-3056.5-1288.9h110.5a6 6 0 0 1 6 6v96.9a6 6 0 0 0 6 6h88.14" stroke="#fc9432" stroke-width="5" fill="none"/><path d="M-3056.44-1286.43h-2.56v-4.95h2.56z" stroke="#fc9432" stroke-width=".05" fill="#fc9432"/><path d="M-2829.1-1180l-14.26 4.63v-9.27z" stroke="#fc9432" stroke-width="5" fill="#fc9432"/><path d="M-2300-1692.93a6 6 0 0 1 6-6h268a6 6 0 0 1 6 6v28a6 6 0 0 1-6 6h-268a6 6 0 0 1-6-6z" stroke="#b5d6ff" stroke-width="2" fill="#cfe4ff"/><use xlink:href="#N" transform="matrix(1,0,0,1,-2286,-1696.9259259259259) translate(33.59259259259258 22.27777777777778)"/><use xlink:href="#O" transform="matrix(1,0,0,1,-2286,-1696.9259259259259) translate(128.4691358024691 22.27777777777778)"/><use xlink:href="#P" transform="matrix(1,0,0,1,-2286,-1696.9259259259259) translate(199.88888888888889 22.27777777777778)"/><path d="M-2300-1564.36a6 6 0 0 1 6-6h268a6 6 0 0 1 6 6v28a6 6 0 0 1-6 6h-268a6 6 0 0 1-6-6z" stroke="#00c2a8" stroke-width="2" fill="#d7faf5"/><use xlink:href="#A" transform="matrix(1,0,0,1,-2286,-1568.3555555555554) translate(32.29629629629629 22.27777777777778)"/><use xlink:href="#B" transform="matrix(1,0,0,1,-2286,-1568.3555555555554) translate(129.64197530864197 22.27777777777778)"/><path d="M-2300-1642.56a6 6 0 0 1 6-6h268a6 6 0 0 1 6 6v47.26a6 6 0 0 1-6 6h-268a6 6 0 0 1-6-6z" stroke="#b5d6ff" stroke-width="2" fill="#cfe4ff"/><use xlink:href="#Q" transform="matrix(1,0,0,1,-2286,-1645.5925925925924) translate(46.49382716049382 31.27777777777778)"/><path d="M-2680-1212.75v-16.5a6 6 0 0 1 6-6h228a6 6 0 0 0 6-6v-303.1a6 6 0 0 1 6-6h108.14" stroke="#fc9432" stroke-width="5" fill="none"/><path d="M-2677.53-1210.25h-4.94v-2.56h4.94z" stroke="#fc9432" stroke-width=".05" fill="#fc9432"/><path d="M-2309.1-1550.36l-14.26 4.64v-9.27z" stroke="#fc9432" stroke-width="5" fill="#fc9432"/><path d="M-2300-1139.7a6 6 0 0 1 6-6h268a6 6 0 0 1 6 6v28a6 6 0 0 1-6 6h-268a6 6 0 0 1-6-6z" stroke="#00c2a8" stroke-width="2" fill="#d7faf5"/><use xlink:href="#R" transform="matrix(1,0,0,1,-2286,-1143.7074074074071) translate(13.80864197530866 22.27777777777778)"/><use xlink:href="#S" transform="matrix(1,0,0,1,-2286,-1143.7074074074071) translate(91.5246913580247 22.27777777777778)"/><use xlink:href="#T" transform="matrix(1,0,0,1,-2286,-1143.7074074074071) translate(170.41358024691357 22.27777777777778)"/><path d="M-2300-1336.85a6 6 0 0 1 6-6h268a6 6 0 0 1 6 6v47.26a6 6 0 0 1-6 6h-268a6 6 0 0 1-6-6z" stroke="#b5d6ff" stroke-width="2" fill="#cfe4ff"/><use xlink:href="#N" transform="matrix(1,0,0,1,-2286,-1339.885185185185) translate(33.59259259259258 31.27777777777778)"/><use xlink:href="#O" transform="matrix(1,0,0,1,-2286,-1339.885185185185) translate(128.4691358024691 31.27777777777778)"/><use xlink:href="#P" transform="matrix(1,0,0,1,-2286,-1339.885185185185) translate(199.88888888888889 31.27777777777778)"/><path d="M-2300-1208.28a6 6 0 0 1 6-6h268a6 6 0 0 1 6 6v47.26a6 6 0 0 1-6 6h-268a6 6 0 0 1-6-6z" stroke="#00c2a8" stroke-width="2" fill="#d7faf5"/><use xlink:href="#A" transform="matrix(1,0,0,1,-2286,-1211.3148148148146) translate(32.29629629629629 31.27777777777778)"/><use xlink:href="#B" transform="matrix(1,0,0,1,-2286,-1211.3148148148146) translate(129.64197530864197 31.27777777777778)"/><path d="M-2300-1276.85a6 6 0 0 1 6-6h268a6 6 0 0 1 6 6v47.26a6 6 0 0 1-6 6h-268a6 6 0 0 1-6-6z" stroke="#b5d6ff" stroke-width="2" fill="#cfe4ff"/><use xlink:href="#U" transform="matrix(1,0,0,1,-2286,-1279.885185185185) translate(71.12345679012346 31.27777777777778)"/><path d="M-2536.5-1180h114.18a2.32 2.32 0 0 0 2.32-2.32 2.32 2.32 0 0 1 2.32-2.33h91.82" stroke="#fc9432" stroke-width="5" fill="none"/><path d="M-2536.44-1177.53h-2.56v-4.94h2.56z" stroke="#fc9432" stroke-width=".05" fill="#fc9432"/><path d="M-2309.1-1184.65l-14.26 4.64v-9.28z" stroke="#fc9432" stroke-width="5" fill="#fc9432"/><path d="M-2300-974a6 6 0 0 1 6-6h268a6 6 0 0 1 6 6v57.63a6 6 0 0 1-6 6h-268a6 6 0 0 1-6-6z" stroke="#00c2a8" stroke-width="2" fill="#d7faf5"/><use xlink:href="#V" transform="matrix(1,0,0,1,-2286,-976.5185185185185) translate(16.895061728395063 21.71527777777778)"/><use xlink:href="#W" transform="matrix(1,0,0,1,-2286,-976.5185185185185) translate(109.30246913580245 21.71527777777778)"/><use xlink:href="#X" transform="matrix(1,0,0,1,-2286,-976.5185185185185) translate(199.30246913580245 21.71527777777778)"/><use xlink:href="#Y" transform="matrix(1,0,0,1,-2286,-976.5185185185185) translate(35.93827160493828 48.38194444444444)"/><use xlink:href="#Z" transform="matrix(1,0,0,1,-2286,-976.5185185185185) translate(110.01234567901234 48.38194444444444)"/><path d="M-2300-883.63a6 6 0 0 1 6-6h268a6 6 0 0 1 6 6v47.26a6 6 0 0 1-6 6h-268a6 6 0 0 1-6-6z" stroke="#00c2a8" stroke-width="2" fill="#d7faf5"/><use xlink:href="#aa" transform="matrix(1,0,0,1,-2286,-886.6666666666667) translate(16.246913580246925 17.77777777777778)"/><use xlink:href="#ab" transform="matrix(1,0,0,1,-2286,-886.6666666666667) translate(61.80246913580248 17.77777777777778)"/><use xlink:href="#ac" transform="matrix(1,0,0,1,-2286,-886.6666666666667) translate(212.35802469135803 17.77777777777778)"/><use xlink:href="#ad" transform="matrix(1,0,0,1,-2286,-886.6666666666667) translate(70.5679012345679 44.44444444444444)"/><use xlink:href="#ae" transform="matrix(1,0,0,1,-2286,-886.6666666666667) translate(154.39506172839504 44.44444444444444)"/><path d="M-2160-906.87v-2.5" stroke="#fc9432" stroke-width="5" fill="none"/><path d="M-2157.53-906.8h-4.94v-2.57h4.94z" stroke="#fc9432" stroke-width=".05" fill="#fc9432"/><path d="M-2160-898.72l-4.64-14.27h9.28z" stroke="#fc9432" stroke-width="5" fill="#fc9432"/><path d="M-2160-826.87V-806a6 6 0 0 0 6 6h109.14" stroke="#fc9432" stroke-width="5" fill="none"/><path d="M-2157.53-826.8h-4.94v-2.57h4.94z" stroke="#fc9432" stroke-width=".05" fill="#fc9432"/><path d="M-2028.1-800l-14.26 4.63v-9.26z" stroke="#fc9432" stroke-width="5" fill="#fc9432"/><path d="M-2300-674a6 6 0 0 1 6-6h268a6 6 0 0 1 6 6v57.63a6 6 0 0 1-6 6h-268a6 6 0 0 1-6-6z" stroke="#00c2a8" stroke-width="2" fill="#d7faf5"/><g><use xlink:href="#af" transform="matrix(1,0,0,1,-2286,-676.5185185185185) translate(9.425925925925924 21.71527777777778)"/><use xlink:href="#ag" transform="matrix(1,0,0,1,-2286,-676.5185185185185) translate(98.19135802469135 21.71527777777778)"/><use xlink:href="#ah" transform="matrix(1,0,0,1,-2286,-676.5185185185185) translate(56.925925925925924 48.38194444444444)"/><use xlink:href="#ai" transform="matrix(1,0,0,1,-2286,-676.5185185185185) translate(123.59259259259258 48.38194444444444)"/></g><path d="M-2160-606.87v1" stroke="#fc9432" stroke-width="5" fill="none"/><path d="M-2157.53-606.8h-4.94v-2.57h4.94z" stroke="#fc9432" stroke-width=".05" fill="#fc9432"/><path d="M-2160-589.1l-4.64-14.26h9.28z" stroke="#fc9432" stroke-width="5" fill="#fc9432"/><path d="M-2300-574a6 6 0 0 1 6-6h268a6 6 0 0 1 6 6v57.63a6 6 0 0 1-6 6h-268a6 6 0 0 1-6-6z" stroke="#00c2a8" stroke-width="2" fill="#d7faf5"/><g><use xlink:href="#aj" transform="matrix(1,0,0,1,-2286,-576.5185185185185) translate(72.9753086419753 37.46527777777778)"/></g><path d="M-2160-506.87V-446a6 6 0 0 0 6 6h89.14" stroke="#fc9432" stroke-width="5" fill="none"/><path d="M-2157.53-506.8h-4.94v-2.57h4.94z" stroke="#fc9432" stroke-width=".05" fill="#fc9432"/><path d="M-2048.1-440l-14.26 4.63v-9.26z" stroke="#fc9432" stroke-width="5" fill="#fc9432"/><path d="M-2300-304.65a6 6 0 0 1 6-6h268a6 6 0 0 1 6 6v57.63a6 6 0 0 1-6 6h-268a6 6 0 0 1-6-6z" stroke="#00c2a8" stroke-width="2" fill="#d7faf5"/><g><use xlink:href="#af" transform="matrix(1,0,0,1,-2286,-307.16419753086404) translate(9.425925925925924 21.71527777777778)"/><use xlink:href="#ag" transform="matrix(1,0,0,1,-2286,-307.16419753086404) translate(98.19135802469135 21.71527777777778)"/><use xlink:href="#ak" transform="matrix(1,0,0,1,-2286,-307.16419753086404) translate(105.01234567901234 48.38194444444444)"/></g><path d="M-2160-237.52v1.02" stroke="#fc9432" stroke-width="5" fill="none"/><path d="M-2157.53-237.45h-4.94v-2.57h4.94z" stroke="#fc9432" stroke-width=".05" fill="#fc9432"/><path d="M-2160-219.74l-4.64-14.26h9.28z" stroke="#fc9432" stroke-width="5" fill="#fc9432"/><path d="M-2300-204.65a6 6 0 0 1 6-6h268a6 6 0 0 1 6 6v57.63a6 6 0 0 1-6 6h-268a6 6 0 0 1-6-6z" stroke="#00c2a8" stroke-width="2" fill="#d7faf5"/><g><use xlink:href="#al" transform="matrix(1,0,0,1,-2286,-207.164197530864) translate(98.8395061728395 37.46527777777778)"/></g><path d="M-2160-137.52v11.66" stroke="#fc9432" stroke-width="5" fill="none"/><path d="M-2157.53-137.45h-4.94v-2.57h4.94z" stroke="#fc9432" stroke-width=".05" fill="#fc9432"/><path d="M-2160-109.1l-4.64-14.26h9.28z" stroke="#fc9432" stroke-width="5" fill="#fc9432"/><path d="M-2300-94a6 6 0 0 1 6-6h268a6 6 0 0 1 6 6v57.63a6 6 0 0 1-6 6h-268a6 6 0 0 1-6-6z" stroke="#00c2a8" stroke-width="2" fill="#d7faf5"/><g><use xlink:href="#am" transform="matrix(1,0,0,1,-2286,-96.51851851851852) translate(95.1358024691358 37.46527777777778)"/></g><path d="M-2300 510.6a6 6 0 0 1 6-6h268a6 6 0 0 1 6 6v28a6 6 0 0 1-6 6h-268a6 6 0 0 1-6-6z" stroke="#00c2a8" stroke-width="2" fill="#d7faf5"/><g><use xlink:href="#an" transform="matrix(1,0,0,1,-2286,506.60185185185196) translate(36.61728395061729 22.27777777777778)"/><use xlink:href="#T" transform="matrix(1,0,0,1,-2286,506.60185185185196) translate(147.60493827160494 22.27777777777778)"/></g><path d="M-2300 312.78a6 6 0 0 1 6-6h268a6 6 0 0 1 6 6v28a6 6 0 0 1-6 6h-268a6 6 0 0 1-6-6z" stroke="#b5d6ff" stroke-width="2" fill="#cfe4ff"/><g><use xlink:href="#N" transform="matrix(1,0,0,1,-2286,308.7814814814815) translate(33.59259259259258 22.27777777777778)"/><use xlink:href="#O" transform="matrix(1,0,0,1,-2286,308.7814814814815) translate(128.4691358024691 22.27777777777778)"/><use xlink:href="#P" transform="matrix(1,0,0,1,-2286,308.7814814814815) translate(199.88888888888889 22.27777777777778)"/></g><path d="M-2300 441.35a6 6 0 0 1 6-6h268a6 6 0 0 1 6 6v28a6 6 0 0 1-6 6h-268a6 6 0 0 1-6-6z" stroke="#00c2a8" stroke-width="2" fill="#d7faf5"/><g><use xlink:href="#A" transform="matrix(1,0,0,1,-2286,437.35185185185196) translate(32.29629629629629 22.27777777777778)"/><use xlink:href="#B" transform="matrix(1,0,0,1,-2286,437.35185185185196) translate(129.64197530864197 22.27777777777778)"/></g><path d="M-2300 363.15a6 6 0 0 1 6-6h268a6 6 0 0 1 6 6v47.26a6 6 0 0 1-6 6h-268a6 6 0 0 1-6-6z" stroke="#b5d6ff" stroke-width="2" fill="#cfe4ff"/><g><use xlink:href="#ao" transform="matrix(1,0,0,1,-2286,360.11481481481485) translate(51.40123456790123 31.27777777777778)"/></g><path d="M-2536.5-1180h110.5a6 6 0 0 1 6 6V449.35a6 6 0 0 0 6 6h88.14" stroke="#fc9432" stroke-width="5" fill="none"/><path d="M-2536.44-1177.53h-2.56v-4.94h2.56z" stroke="#fc9432" stroke-width=".05" fill="#fc9432"/><path d="M-2309.1 455.35l-14.26 4.64v-9.28z" stroke="#fc9432" stroke-width="5" fill="#fc9432"/><path d="M-1600-1014a6 6 0 0 1 6-6h148a6 6 0 0 1 6 6v108a6 6 0 0 1-6 6h-148a6 6 0 0 1-6-6z" stroke="#8ee895" stroke-width="2" fill="#c3f7c8"/><g><use xlink:href="#ap" transform="matrix(1,0,0,1,-1592,-1014) translate(29.500000000000007 44.77777777777778)"/><use xlink:href="#aq" transform="matrix(1,0,0,1,-1592,-1014) translate(25.76543209876543 71.44444444444446)"/></g><path d="M-2016.5 455.35h200.5a6 6 0 0 0 6-6V-954a6 6 0 0 1 6-6h178.14" stroke="#fc9432" stroke-width="5" fill="none"/><path d="M-2016.44 457.83h-2.56v-4.95h2.56z" stroke="#fc9432" stroke-width=".05" fill="#fc9432"/><path d="M-1609.1-960l-14.26 4.63v-9.26z" stroke="#fc9432" stroke-width="5" fill="#fc9432"/><path d="M-2016.5-1184.65h200.5a6 6 0 0 1 6 6V-966a6 6 0 0 0 6 6h178.14" stroke="#fc9432" stroke-width="5" fill="none"/><path d="M-2016.44-1182.17h-2.56v-4.95h2.56z" stroke="#fc9432" stroke-width=".05" fill="#fc9432"/><path d="M-1609.1-960l-14.26 4.63v-9.26z" stroke="#fc9432" stroke-width="5" fill="#fc9432"/><path d="M-2160-1526.86v16.5a6 6 0 0 0 6 6h338a6 6 0 0 1 6 6V-966a6 6 0 0 0 6 6h178.14" stroke="#fc9432" stroke-width="5" fill="none"/><path d="M-2157.53-1526.8h-4.94v-2.56h4.94z" stroke="#fc9432" stroke-width=".05" fill="#fc9432"/><path d="M-1609.1-960l-14.26 4.63v-9.26z" stroke="#fc9432" stroke-width="5" fill="#fc9432"/><defs><path d="M199 0l-22-63H83L61 0H9l90-248h61L250 0h-51zm-33-102l-36-108c-10 38-24 72-36 108h72" id="ar"/><path d="M135-194c53 0 70 44 70 98 0 56-19 98-73 100-31 1-45-17-59-34 3 33 2 69 2 105H25l-1-265h48c2 10 0 23 3 31 11-24 29-35 60-35zM114-30c33 0 39-31 40-66 0-38-9-64-40-64-56 0-55 130 0 130" id="as"/><path d="M25 0v-261h50V0H25" id="at"/><path d="M25-224v-37h50v37H25zM25 0v-190h50V0H25" id="au"/><path d="M190-63c-7 42-38 67-86 67-59 0-84-38-90-98-12-110 154-137 174-36l-49 2c-2-19-15-32-35-32-30 0-35 28-38 64-6 74 65 87 74 30" id="av"/><path d="M133-34C117-15 103 5 69 4 32 3 11-16 11-54c-1-60 55-63 116-61 1-26-3-47-28-47-18 1-26 9-28 27l-52-2c7-38 36-58 82-57s74 22 75 68l1 82c-1 14 12 18 25 15v27c-30 8-71 5-69-32zm-48 3c29 0 43-24 42-57-32 0-66-3-65 30 0 17 8 27 23 27" id="aw"/><path d="M115-3C79 11 28 4 28-45v-112H4v-33h27l15-45h31v45h36v33H77v99c-1 23 16 31 38 25v30" id="ax"/><path d="M110-194c64 0 96 36 96 99 0 64-35 99-97 99-61 0-95-36-95-99 0-62 34-99 96-99zm-1 164c35 0 45-28 45-65 0-40-10-65-43-65-34 0-45 26-45 65 0 36 10 65 43 65" id="ay"/><path d="M135-194c87-1 58 113 63 194h-50c-7-57 23-157-34-157-59 0-34 97-39 157H25l-1-190h47c2 12-1 28 3 38 12-26 28-41 61-42" id="az"/><path d="M275 0h-61l-44-196L126 0H64L0-248h53L97-49l45-199h58l43 199 44-199h52" id="aA"/><path d="M135-150c-39-12-60 13-60 57V0H25l-1-190h47c2 13-1 29 3 40 6-28 27-53 61-41v41" id="aB"/><path d="M147 0L96-86 75-71V0H25v-261h50v150l67-79h53l-66 74L201 0h-54" id="aC"/><path d="M185-48c-13 30-37 53-82 52C43 2 14-33 14-96s30-98 90-98c62 0 83 45 84 108H66c0 31 8 55 39 56 18 0 30-7 34-22zm-45-69c5-46-57-63-70-21-2 6-4 13-4 21h74" id="aD"/><g id="b"><use transform="matrix(0.06666666666666667,0,0,0.06666666666666667,0,0)" xlink:href="#ar"/><use transform="matrix(0.06666666666666667,0,0,0.06666666666666667,17.266666666666666,0)" xlink:href="#as"/><use transform="matrix(0.06666666666666667,0,0,0.06666666666666667,31.866666666666667,0)" xlink:href="#as"/><use transform="matrix(0.06666666666666667,0,0,0.06666666666666667,46.46666666666667,0)" xlink:href="#at"/><use transform="matrix(0.06666666666666667,0,0,0.06666666666666667,53.13333333333333,0)" xlink:href="#au"/><use transform="matrix(0.06666666666666667,0,0,0.06666666666666667,59.8,0)" xlink:href="#av"/><use transform="matrix(0.06666666666666667,0,0,0.06666666666666667,73.13333333333333,0)" xlink:href="#aw"/><use transform="matrix(0.06666666666666667,0,0,0.06666666666666667,86.46666666666665,0)" xlink:href="#ax"/><use transform="matrix(0.06666666666666667,0,0,0.06666666666666667,94.4,0)" xlink:href="#au"/><use transform="matrix(0.06666666666666667,0,0,0.06666666666666667,101.06666666666666,0)" xlink:href="#ay"/><use transform="matrix(0.06666666666666667,0,0,0.06666666666666667,115.66666666666664,0)" xlink:href="#az"/><use transform="matrix(0.06666666666666667,0,0,0.06666666666666667,130.26666666666665,0)" xlink:href="#aA"/><use transform="matrix(0.06666666666666667,0,0,0.06666666666666667,152.39999999999998,0)" xlink:href="#ay"/><use transform="matrix(0.06666666666666667,0,0,0.06666666666666667,166.99999999999997,0)" xlink:href="#aB"/><use transform="matrix(0.06666666666666667,0,0,0.06666666666666667,176.33333333333331,0)" xlink:href="#aC"/><use transform="matrix(0.06666666666666667,0,0,0.06666666666666667,189.66666666666666,0)" xlink:href="#aD"/><use transform="matrix(0.06666666666666667,0,0,0.06666666666666667,203,0)" xlink:href="#aB"/></g><path d="M185-189c-5-48-123-54-124 2 14 75 158 14 163 119 3 78-121 87-175 55-17-10-28-26-33-46l33-7c5 56 141 63 141-1 0-78-155-14-162-118-5-82 145-84 179-34 5 7 8 16 11 25" id="aE"/><path d="M59-47c-2 24 18 29 38 22v24C64 9 27 4 27-40v-127H5v-23h24l9-43h21v43h35v23H59v120" id="aF"/><path d="M141-36C126-15 110 5 73 4 37 3 15-17 15-53c-1-64 63-63 125-63 3-35-9-54-41-54-24 1-41 7-42 31l-33-3c5-37 33-52 76-52 45 0 72 20 72 64v82c-1 20 7 32 28 27v20c-31 9-61-2-59-35zM48-53c0 20 12 33 32 33 41-3 63-29 60-74-43 2-92-5-92 41" id="aG"/><path d="M24-231v-30h32v30H24zM24 0v-190h32V0H24" id="aH"/><path d="M96-169c-40 0-48 33-48 73s9 75 48 75c24 0 41-14 43-38l32 2c-6 37-31 61-74 61-59 0-76-41-82-99-10-93 101-131 147-64 4 7 5 14 7 22l-32 3c-4-21-16-35-41-35" id="aI"/><g id="c"><use transform="matrix(0.054320987654320974,0,0,0.054320987654320974,0,0)" xlink:href="#aE"/><use transform="matrix(0.054320987654320974,0,0,0.054320987654320974,13.037037037037035,0)" xlink:href="#aF"/><use transform="matrix(0.054320987654320974,0,0,0.054320987654320974,18.469135802469133,0)" xlink:href="#aG"/><use transform="matrix(0.054320987654320974,0,0,0.054320987654320974,29.333333333333325,0)" xlink:href="#aF"/><use transform="matrix(0.054320987654320974,0,0,0.054320987654320974,34.76543209876542,0)" xlink:href="#aH"/><use transform="matrix(0.054320987654320974,0,0,0.054320987654320974,39.05679012345678,0)" xlink:href="#aI"/></g><path d="M24 0v-261h32V0H24" id="aJ"/><path d="M135-143c-3-34-86-38-87 0 15 53 115 12 119 90S17 21 10-45l28-5c4 36 97 45 98 0-10-56-113-15-118-90-4-57 82-63 122-42 12 7 21 19 24 35" id="aK"/><g id="d"><use transform="matrix(0.054320987654320974,0,0,0.054320987654320974,0,0)" xlink:href="#aI"/><use transform="matrix(0.054320987654320974,0,0,0.054320987654320974,9.777777777777775,0)" xlink:href="#aJ"/><use transform="matrix(0.054320987654320974,0,0,0.054320987654320974,14.069135802469132,0)" xlink:href="#aG"/><use transform="matrix(0.054320987654320974,0,0,0.054320987654320974,24.933333333333326,0)" xlink:href="#aK"/><use transform="matrix(0.054320987654320974,0,0,0.054320987654320974,34.7111111111111,0)" xlink:href="#aK"/></g><path d="M24-248c120-7 223 5 221 122C244-46 201 0 124 0H24v-248zM76-40c74 7 117-18 117-86 0-67-45-88-117-82v168" id="aL"/><path d="M67-125c0 53 21 87 73 88 37 1 54-22 65-47l45 17C233-25 199 4 140 4 58 4 20-42 15-125 8-235 124-281 211-232c18 10 29 29 36 50l-46 12c-8-25-30-41-62-41-52 0-71 34-72 86" id="aM"/><path d="M144 0l-44-69L55 0H2l70-98-66-92h53l41 62 40-62h54l-67 91 71 99h-54" id="aN"/><g id="e"><use transform="matrix(0.06666666666666667,0,0,0.06666666666666667,0,0)" xlink:href="#aL"/><use transform="matrix(0.06666666666666667,0,0,0.06666666666666667,17.266666666666666,0)" xlink:href="#aw"/><use transform="matrix(0.06666666666666667,0,0,0.06666666666666667,30.599999999999998,0)" xlink:href="#ax"/><use transform="matrix(0.06666666666666667,0,0,0.06666666666666667,38.53333333333333,0)" xlink:href="#aw"/><use transform="matrix(0.06666666666666667,0,0,0.06666666666666667,51.86666666666667,0)" xlink:href="#aM"/><use transform="matrix(0.06666666666666667,0,0,0.06666666666666667,69.13333333333333,0)" xlink:href="#ay"/><use transform="matrix(0.06666666666666667,0,0,0.06666666666666667,83.73333333333332,0)" xlink:href="#az"/><use transform="matrix(0.06666666666666667,0,0,0.06666666666666667,98.33333333333331,0)" xlink:href="#ax"/><use transform="matrix(0.06666666666666667,0,0,0.06666666666666667,106.26666666666665,0)" xlink:href="#aD"/><use transform="matrix(0.06666666666666667,0,0,0.06666666666666667,119.59999999999998,0)" xlink:href="#aN"/><use transform="matrix(0.06666666666666667,0,0,0.06666666666666667,132.9333333333333,0)" xlink:href="#ax"/></g><g id="f"><use transform="matrix(0.054320987654320974,0,0,0.054320987654320974,0,0)" xlink:href="#aI"/><use transform="matrix(0.054320987654320974,0,0,0.054320987654320974,9.777777777777775,0)" xlink:href="#aJ"/><use transform="matrix(0.054320987654320974,0,0,0.054320987654320974,14.069135802469132,0)" xlink:href="#aG"/><use transform="matrix(0.054320987654320974,0,0,0.054320987654320974,24.933333333333326,0)" xlink:href="#aK"/><use transform="matrix(0.054320987654320974,0,0,0.054320987654320974,34.7111111111111,0)" xlink:href="#aK"/></g><path d="M195 0l-88-114-31 24V0H24v-248h52v113l112-113h60L142-143 257 0h-62" id="aO"/><path d="M85 4C-2 5 27-109 22-190h50c7 57-23 150 33 157 60-5 35-97 40-157h50l1 190h-47c-2-12 1-28-3-38-12 25-28 42-61 42" id="aP"/><path d="M123 10C108 53 80 86 19 72V37c35 8 53-11 59-39L3-190h52l48 148c12-52 28-100 44-148h51" id="aQ"/><path d="M76-208v77h127v40H76V0H24v-248h183v40H76" id="aR"/><path d="M25-224v-37h50v37H25zM75 22c2 45-34 59-81 51V38c22 5 31-5 31-27v-201h50V22" id="aS"/><g id="g"><use transform="matrix(0.06666666666666667,0,0,0.06666666666666667,0,0)" xlink:href="#aO"/><use transform="matrix(0.06666666666666667,0,0,0.06666666666666667,17.266666666666666,0)" xlink:href="#aP"/><use transform="matrix(0.06666666666666667,0,0,0.06666666666666667,31.866666666666667,0)" xlink:href="#ax"/><use transform="matrix(0.06666666666666667,0,0,0.06666666666666667,39.8,0)" xlink:href="#aQ"/><use transform="matrix(0.06666666666666667,0,0,0.06666666666666667,53.13333333333333,0)" xlink:href="#aw"/><use transform="matrix(0.06666666666666667,0,0,0.06666666666666667,66.46666666666667,0)" xlink:href="#aR"/><use transform="matrix(0.06666666666666667,0,0,0.06666666666666667,81.06666666666666,0)" xlink:href="#aw"/><use transform="matrix(0.06666666666666667,0,0,0.06666666666666667,94.4,0)" xlink:href="#aS"/><use transform="matrix(0.06666666666666667,0,0,0.06666666666666667,101.06666666666666,0)" xlink:href="#ax"/><use transform="matrix(0.06666666666666667,0,0,0.06666666666666667,109,0)" xlink:href="#aw"/></g><path d="M233-177c-1 41-23 64-60 70L243 0h-38l-65-103H63V0H30v-248c88 3 205-21 203 71zM63-129c60-2 137 13 137-47 0-61-80-42-137-45v92" id="aT"/><path d="M100-194c63 0 86 42 84 106H49c0 40 14 67 53 68 26 1 43-12 49-29l28 8c-11 28-37 45-77 45C44 4 14-33 15-96c1-61 26-98 85-98zm52 81c6-60-76-77-97-28-3 7-6 17-6 28h103" id="aU"/><path d="M115-194c55 1 70 41 70 98S169 2 115 4C84 4 66-9 55-30l1 105H24l-1-265h31l2 30c10-21 28-34 59-34zm-8 174c40 0 45-34 45-75s-6-73-45-74c-42 0-51 32-51 76 0 43 10 73 51 73" id="aV"/><path d="M100-194c62-1 85 37 85 99 1 63-27 99-86 99S16-35 15-95c0-66 28-99 85-99zM99-20c44 1 53-31 53-75 0-43-8-75-51-75s-53 32-53 75 10 74 51 75" id="aW"/><path d="M114-163C36-179 61-72 57 0H25l-1-190h30c1 12-1 29 2 39 6-27 23-49 58-41v29" id="aX"/><path d="M179-190L93 31C79 59 56 82 12 73V49c39 6 53-20 64-50L1-190h34L92-34l54-156h33" id="aY"/><g id="h"><use transform="matrix(0.054320987654320974,0,0,0.054320987654320974,0,0)" xlink:href="#aT"/><use transform="matrix(0.054320987654320974,0,0,0.054320987654320974,14.069135802469132,0)" xlink:href="#aU"/><use transform="matrix(0.054320987654320974,0,0,0.054320987654320974,24.933333333333326,0)" xlink:href="#aV"/><use transform="matrix(0.054320987654320974,0,0,0.054320987654320974,35.79753086419752,0)" xlink:href="#aW"/><use transform="matrix(0.054320987654320974,0,0,0.054320987654320974,46.661728395061715,0)" xlink:href="#aK"/><use transform="matrix(0.054320987654320974,0,0,0.054320987654320974,56.439506172839494,0)" xlink:href="#aH"/><use transform="matrix(0.054320987654320974,0,0,0.054320987654320974,60.730864197530835,0)" xlink:href="#aF"/><use transform="matrix(0.054320987654320974,0,0,0.054320987654320974,66.16296296296294,0)" xlink:href="#aW"/><use transform="matrix(0.054320987654320974,0,0,0.054320987654320974,77.02716049382713,0)" xlink:href="#aX"/><use transform="matrix(0.054320987654320974,0,0,0.054320987654320974,83.49135802469132,0)" xlink:href="#aY"/></g><g id="i"><use transform="matrix(0.06666666666666667,0,0,0.06666666666666667,0,0)" xlink:href="#aO"/><use transform="matrix(0.06666666666666667,0,0,0.06666666666666667,17.266666666666666,0)" xlink:href="#aP"/><use transform="matrix(0.06666666666666667,0,0,0.06666666666666667,31.866666666666667,0)" xlink:href="#ax"/><use transform="matrix(0.06666666666666667,0,0,0.06666666666666667,39.8,0)" xlink:href="#aQ"/><use transform="matrix(0.06666666666666667,0,0,0.06666666666666667,53.13333333333333,0)" xlink:href="#aw"/></g><path fill="#3a414a" d="M101-251c82-7 93 87 43 132L82-64C71-53 59-42 53-27h129V0H18c2-99 128-94 128-182 0-28-16-43-45-43s-46 15-49 41l-32-3c6-41 34-60 81-64" id="aZ"/><path fill="#3a414a" d="M101-251c68 0 85 55 85 127S166 4 100 4C33 4 14-52 14-124c0-73 17-127 87-127zm-1 229c47 0 54-49 54-102s-4-102-53-102c-51 0-55 48-55 102 0 53 5 102 54 102" id="ba"/><path fill="#3a414a" d="M27 0v-27h64v-190l-56 39v-29l58-41h29v221h61V0H27" id="bb"/><path fill="#3a414a" d="M134-131c28 9 52 24 51 62-1 50-34 73-85 73S17-19 16-69c0-36 21-54 49-61-75-25-45-126 34-121 46 3 78 18 79 63 0 33-17 51-44 57zm-34-11c31 1 46-15 46-44 0-28-17-43-47-42-29 0-46 13-45 42 1 28 16 44 46 44zm1 122c35 0 51-18 51-52 0-30-18-46-53-46-33 0-51 17-51 47 0 34 19 51 53 51" id="bc"/><path fill="#3a414a" d="M33 0v-38h34V0H33" id="bd"/><g id="j"><use transform="matrix(0.06172839506172839,0,0,0.06172839506172839,0,0)" xlink:href="#aZ"/><use transform="matrix(0.06172839506172839,0,0,0.06172839506172839,12.345679012345679,0)" xlink:href="#ba"/><use transform="matrix(0.06172839506172839,0,0,0.06172839506172839,24.691358024691358,0)" xlink:href="#bb"/><use transform="matrix(0.06172839506172839,0,0,0.06172839506172839,37.03703703703704,0)" xlink:href="#bc"/><use transform="matrix(0.06172839506172839,0,0,0.06172839506172839,49.382716049382715,0)" xlink:href="#bd"/></g><path fill="#3a414a" d="M24-231v-30h32v30H24zM-9 49c24 4 33-6 33-30v-209h32V24c2 40-23 58-65 49V49" id="be"/><path fill="#3a414a" d="M141-36C126-15 110 5 73 4 37 3 15-17 15-53c-1-64 63-63 125-63 3-35-9-54-41-54-24 1-41 7-42 31l-33-3c5-37 33-52 76-52 45 0 72 20 72 64v82c-1 20 7 32 28 27v20c-31 9-61-2-59-35zM48-53c0 20 12 33 32 33 41-3 63-29 60-74-43 2-92-5-92 41" id="bf"/><path fill="#3a414a" d="M117-194c89-4 53 116 60 194h-32v-121c0-31-8-49-39-48C34-167 62-67 57 0H25l-1-190h30c1 10-1 24 2 32 11-22 29-35 61-36" id="bg"/><path fill="#3a414a" d="M84 4C-5 8 30-112 23-190h32v120c0 31 7 50 39 49 72-2 45-101 50-169h31l1 190h-30c-1-10 1-25-2-33-11 22-28 36-60 37" id="bh"/><path fill="#3a414a" d="M141-36C126-15 110 5 73 4 37 3 15-17 15-53c-1-64 63-63 125-63 3-35-9-54-41-54-24 1-41 7-42 31l-33-3c5-37 33-52 76-52 45 0 72 20 72 64v82c-1 20 7 32 28 27v20c-31 9-61-2-59-35zM48-53c0 20 12 33 32 33 41-3 63-29 60-74-43 2-92-5-92 41zm25-158c8-23 27-35 38-54h36v5l-58 49H73" id="bi"/><path fill="#3a414a" d="M114-163C36-179 61-72 57 0H25l-1-190h30c1 12-1 29 2 39 6-27 23-49 58-41v29" id="bj"/><g id="k"><use transform="matrix(0.06172839506172839,0,0,0.06172839506172839,0,0)" xlink:href="#be"/><use transform="matrix(0.06172839506172839,0,0,0.06172839506172839,4.876543209876543,0)" xlink:href="#bf"/><use transform="matrix(0.06172839506172839,0,0,0.06172839506172839,17.22222222222222,0)" xlink:href="#bg"/><use transform="matrix(0.06172839506172839,0,0,0.06172839506172839,29.5679012345679,0)" xlink:href="#bh"/><use transform="matrix(0.06172839506172839,0,0,0.06172839506172839,41.913580246913575,0)" xlink:href="#bi"/><use transform="matrix(0.06172839506172839,0,0,0.06172839506172839,54.25925925925925,0)" xlink:href="#bj"/></g><path fill="#3a414a" d="M16-82v-28h88v28H16" id="bk"/><path fill="#3a414a" d="M100-194c63 0 86 42 84 106H49c0 40 14 67 53 68 26 1 43-12 49-29l28 8c-11 28-37 45-77 45C44 4 14-33 15-96c1-61 26-98 85-98zm52 81c6-60-76-77-97-28-3 7-6 17-6 28h103zm-74-98c8-23 27-35 38-54h36v5l-58 49H78" id="bl"/><g id="l"><use transform="matrix(0.06172839506172839,0,0,0.06172839506172839,0,0)" xlink:href="#bb"/><use transform="matrix(0.06172839506172839,0,0,0.06172839506172839,12.345679012345679,0)" xlink:href="#ba"/><use transform="matrix(0.06172839506172839,0,0,0.06172839506172839,24.691358024691358,0)" xlink:href="#bk"/><use transform="matrix(0.06172839506172839,0,0,0.06172839506172839,32.03703703703704,0)" xlink:href="#bl"/><use transform="matrix(0.06172839506172839,0,0,0.06172839506172839,44.382716049382715,0)" xlink:href="#bg"/></g><path fill="#3a414a" d="M101-234c-31-9-42 10-38 44h38v23H63V0H32v-167H5v-23h27c-7-52 17-82 69-68v24" id="bm"/><path fill="#3a414a" d="M59-47c-2 24 18 29 38 22v24C64 9 27 4 27-40v-127H5v-23h24l9-43h21v43h35v23H59v120" id="bn"/><path fill="#3a414a" d="M143 0L79-87 56-68V0H24v-261h32v163l83-92h37l-77 82L181 0h-38" id="bo"/><g id="m"><use transform="matrix(0.06172839506172839,0,0,0.06172839506172839,0,0)" xlink:href="#bm"/><use transform="matrix(0.06172839506172839,0,0,0.06172839506172839,6.172839506172839,0)" xlink:href="#bf"/><use transform="matrix(0.06172839506172839,0,0,0.06172839506172839,18.51851851851852,0)" xlink:href="#be"/><use transform="matrix(0.06172839506172839,0,0,0.06172839506172839,23.395061728395063,0)" xlink:href="#bn"/><use transform="matrix(0.06172839506172839,0,0,0.06172839506172839,29.567901234567902,0)" xlink:href="#bi"/><use transform="matrix(0.06172839506172839,0,0,0.06172839506172839,41.91358024691358,0)" xlink:href="#bg"/><use transform="matrix(0.06172839506172839,0,0,0.06172839506172839,54.25925925925926,0)" xlink:href="#bo"/><use transform="matrix(0.06172839506172839,0,0,0.06172839506172839,65.37037037037037,0)" xlink:href="#bl"/><use transform="matrix(0.06172839506172839,0,0,0.06172839506172839,77.71604938271605,0)" xlink:href="#bg"/><use transform="matrix(0.06172839506172839,0,0,0.06172839506172839,90.06172839506173,0)" xlink:href="#bn"/></g><path fill="#3a414a" d="M106-169C34-169 62-67 57 0H25v-261h32l-1 103c12-21 28-36 61-36 89 0 53 116 60 194h-32v-121c2-32-8-49-39-48" id="bp"/><path fill="#3a414a" d="M179-190L93 31C79 59 56 82 12 73V49c39 6 53-20 64-50L1-190h34L92-34l54-156h33" id="bq"/><g id="n"><use transform="matrix(0.06172839506172839,0,0,0.06172839506172839,0,0)" xlink:href="#bp"/><use transform="matrix(0.06172839506172839,0,0,0.06172839506172839,12.345679012345679,0)" xlink:href="#bi"/><use transform="matrix(0.06172839506172839,0,0,0.06172839506172839,24.691358024691358,0)" xlink:href="#bg"/><use transform="matrix(0.06172839506172839,0,0,0.06172839506172839,37.03703703703704,0)" xlink:href="#bq"/></g><g id="o"><use transform="matrix(0.06172839506172839,0,0,0.06172839506172839,0,0)" xlink:href="#bo"/><use transform="matrix(0.06172839506172839,0,0,0.06172839506172839,11.11111111111111,0)" xlink:href="#bh"/><use transform="matrix(0.06172839506172839,0,0,0.06172839506172839,23.45679012345679,0)" xlink:href="#bn"/><use transform="matrix(0.06172839506172839,0,0,0.06172839506172839,29.62962962962963,0)" xlink:href="#bq"/><use transform="matrix(0.06172839506172839,0,0,0.06172839506172839,40.74074074074074,0)" xlink:href="#bf"/></g><path fill="#3a414a" d="M108 0H70L1-190h34L89-25l56-165h34" id="br"/><path fill="#3a414a" d="M100-194c62-1 85 37 85 99 1 63-27 99-86 99S16-35 15-95c0-66 28-99 85-99zM99-20c44 1 53-31 53-75 0-43-8-75-51-75s-53 32-53 75 10 74 51 75" id="bs"/><path fill="#3a414a" d="M24 0v-261h32V0H24" id="bt"/><g id="p"><use transform="matrix(0.06172839506172839,0,0,0.06172839506172839,0,0)" xlink:href="#br"/><use transform="matrix(0.06172839506172839,0,0,0.06172839506172839,11.11111111111111,0)" xlink:href="#bs"/><use transform="matrix(0.06172839506172839,0,0,0.06172839506172839,23.45679012345679,0)" xlink:href="#bt"/><use transform="matrix(0.06172839506172839,0,0,0.06172839506172839,28.333333333333336,0)" xlink:href="#bn"/></g><use transform="matrix(0.06172839506172839,0,0,0.06172839506172839,0,0)" xlink:href="#bf" id="q"/><path fill="#3a414a" d="M100-194c63 0 86 42 84 106H49c0 40 14 67 53 68 26 1 43-12 49-29l28 8c-11 28-37 45-77 45C44 4 14-33 15-96c1-61 26-98 85-98zm52 81c6-60-76-77-97-28-3 7-6 17-6 28h103" id="bu"/><path fill="#3a414a" d="M85-194c31 0 48 13 60 33l-1-100h32l1 261h-30c-2-10 0-23-3-31C134-8 116 4 85 4 32 4 16-35 15-94c0-66 23-100 70-100zm9 24c-40 0-46 34-46 75 0 40 6 74 45 74 42 0 51-32 51-76 0-42-9-74-50-73" id="bv"/><path fill="#3a414a" d="M100-194c62-1 85 37 85 99 1 63-27 99-86 99S16-35 15-95c0-66 28-99 85-99zM99-20c44 1 53-31 53-75 0-43-8-75-51-75s-53 32-53 75 10 74 51 75zM51-211c8-23 27-35 38-54h36v5l-58 49H51zm61 0c8-23 27-35 38-54h36v5l-58 49h-16" id="bw"/><path fill="#3a414a" d="M115-194c53 0 69 39 70 98 0 66-23 100-70 100C84 3 66-7 56-30L54 0H23l1-261h32v101c10-23 28-34 59-34zm-8 174c40 0 45-34 45-75 0-40-5-75-45-74-42 0-51 32-51 76 0 43 10 73 51 73" id="bx"/><g id="r"><use transform="matrix(0.06172839506172839,0,0,0.06172839506172839,0,0)" xlink:href="#bj"/><use transform="matrix(0.06172839506172839,0,0,0.06172839506172839,7.345679012345679,0)" xlink:href="#bu"/><use transform="matrix(0.06172839506172839,0,0,0.06172839506172839,19.691358024691358,0)" xlink:href="#bg"/><use transform="matrix(0.06172839506172839,0,0,0.06172839506172839,32.03703703703704,0)" xlink:href="#bv"/><use transform="matrix(0.06172839506172839,0,0,0.06172839506172839,44.382716049382715,0)" xlink:href="#bu"/><use transform="matrix(0.06172839506172839,0,0,0.06172839506172839,56.72839506172839,0)" xlink:href="#bt"/><use transform="matrix(0.06172839506172839,0,0,0.06172839506172839,61.60493827160494,0)" xlink:href="#bw"/><use transform="matrix(0.06172839506172839,0,0,0.06172839506172839,73.95061728395062,0)" xlink:href="#bx"/><use transform="matrix(0.06172839506172839,0,0,0.06172839506172839,86.2962962962963,0)" xlink:href="#bu"/><use transform="matrix(0.06172839506172839,0,0,0.06172839506172839,98.64197530864199,0)" xlink:href="#bg"/></g><path fill="#3a414a" d="M30 0v-248h33v221h125V0H30" id="by"/><path fill="#3a414a" d="M177-190C167-65 218 103 67 71c-23-6-38-20-44-43l32-5c15 47 100 32 89-28v-30C133-14 115 1 83 1 29 1 15-40 15-95c0-56 16-97 71-98 29-1 48 16 59 35 1-10 0-23 2-32h30zM94-22c36 0 50-32 50-73 0-42-14-75-50-75-39 0-46 34-46 75s6 73 46 73" id="bz"/><g id="s"><use transform="matrix(0.06172839506172839,0,0,0.06172839506172839,0,0)" xlink:href="#by"/><use transform="matrix(0.06172839506172839,0,0,0.06172839506172839,12.345679012345679,0)" xlink:href="#bu"/><use transform="matrix(0.06172839506172839,0,0,0.06172839506172839,24.691358024691358,0)" xlink:href="#bz"/><use transform="matrix(0.06172839506172839,0,0,0.06172839506172839,37.03703703703704,0)" xlink:href="#bg"/><use transform="matrix(0.06172839506172839,0,0,0.06172839506172839,49.382716049382715,0)" xlink:href="#bf"/><use transform="matrix(0.06172839506172839,0,0,0.06172839506172839,61.72839506172839,0)" xlink:href="#bz"/><use transform="matrix(0.06172839506172839,0,0,0.06172839506172839,74.07407407407408,0)" xlink:href="#bq"/><use transform="matrix(0.06172839506172839,0,0,0.06172839506172839,85.18518518518519,0)" xlink:href="#bs"/><use transform="matrix(0.06172839506172839,0,0,0.06172839506172839,97.53086419753087,0)" xlink:href="#bx"/><use transform="matrix(0.06172839506172839,0,0,0.06172839506172839,109.87654320987656,0)" xlink:href="#bx"/></g><path fill="#3a414a" d="M210-169c-67 3-38 105-44 169h-31v-121c0-29-5-50-35-48C34-165 62-65 56 0H25l-1-190h30c1 10-1 24 2 32 10-44 99-50 107 0 11-21 27-35 58-36 85-2 47 119 55 194h-31v-121c0-29-5-49-35-48" id="bA"/><g id="t"><use transform="matrix(0.06172839506172839,0,0,0.06172839506172839,0,0)" xlink:href="#bm"/><use transform="matrix(0.06172839506172839,0,0,0.06172839506172839,6.172839506172839,0)" xlink:href="#bs"/><use transform="matrix(0.06172839506172839,0,0,0.06172839506172839,18.51851851851852,0)" xlink:href="#bj"/><use transform="matrix(0.06172839506172839,0,0,0.06172839506172839,25.864197530864196,0)" xlink:href="#bz"/><use transform="matrix(0.06172839506172839,0,0,0.06172839506172839,38.20987654320987,0)" xlink:href="#bf"/><use transform="matrix(0.06172839506172839,0,0,0.06172839506172839,50.55555555555555,0)" xlink:href="#bt"/><use transform="matrix(0.06172839506172839,0,0,0.06172839506172839,55.432098765432094,0)" xlink:href="#bA"/><use transform="matrix(0.06172839506172839,0,0,0.06172839506172839,73.88888888888889,0)" xlink:href="#bh"/></g><path fill="#3a414a" d="M115-194c55 1 70 41 70 98S169 2 115 4C84 4 66-9 55-30l1 105H24l-1-265h31l2 30c10-21 28-34 59-34zm-8 174c40 0 45-34 45-75s-6-73-45-74c-42 0-51 32-51 76 0 43 10 73 51 73" id="bB"/><g id="u"><use transform="matrix(0.06172839506172839,0,0,0.06172839506172839,0,0)" xlink:href="#bg"/><use transform="matrix(0.06172839506172839,0,0,0.06172839506172839,12.345679012345679,0)" xlink:href="#bf"/><use transform="matrix(0.06172839506172839,0,0,0.06172839506172839,24.691358024691358,0)" xlink:href="#bB"/></g><path fill="#3a414a" d="M190 0L58-211 59 0H30v-248h39L202-35l-2-213h31V0h-41" id="bC"/><path fill="#3a414a" d="M135-143c-3-34-86-38-87 0 15 53 115 12 119 90S17 21 10-45l28-5c4 36 97 45 98 0-10-56-113-15-118-90-4-57 82-63 122-42 12 7 21 19 24 35" id="bD"/><path fill="#3a414a" d="M24-231v-30h32v30H24zM24 0v-190h32V0H24" id="bE"/><path fill="#3a414a" d="M9 0v-24l116-142H16v-24h144v24L44-24h123V0H9" id="bF"/><g id="v"><use transform="matrix(0.06172839506172839,0,0,0.06172839506172839,0,0)" xlink:href="#bC"/><use transform="matrix(0.06172839506172839,0,0,0.06172839506172839,15.987654320987653,0)" xlink:href="#bl"/><use transform="matrix(0.06172839506172839,0,0,0.06172839506172839,28.333333333333332,0)" xlink:href="#br"/><use transform="matrix(0.06172839506172839,0,0,0.06172839506172839,39.44444444444444,0)" xlink:href="#bD"/><use transform="matrix(0.06172839506172839,0,0,0.06172839506172839,50.55555555555556,0)" xlink:href="#bn"/><use transform="matrix(0.06172839506172839,0,0,0.06172839506172839,56.7283950617284,0)" xlink:href="#bf"/><use transform="matrix(0.06172839506172839,0,0,0.06172839506172839,69.07407407407408,0)" xlink:href="#bn"/><use transform="matrix(0.06172839506172839,0,0,0.06172839506172839,75.24691358024691,0)" xlink:href="#bE"/><use transform="matrix(0.06172839506172839,0,0,0.06172839506172839,80.12345679012346,0)" xlink:href="#bD"/><use transform="matrix(0.06172839506172839,0,0,0.06172839506172839,91.23456790123457,0)" xlink:href="#bF"/><use transform="matrix(0.06172839506172839,0,0,0.06172839506172839,102.34567901234568,0)" xlink:href="#bn"/><use transform="matrix(0.06172839506172839,0,0,0.06172839506172839,108.51851851851852,0)" xlink:href="#bE"/><use transform="matrix(0.06172839506172839,0,0,0.06172839506172839,113.39506172839506,0)" xlink:href="#bo"/><use transform="matrix(0.06172839506172839,0,0,0.06172839506172839,124.50617283950618,0)" xlink:href="#bf"/></g><path d="M175 0L67-191c6 58 2 128 3 191H24v-248h59L193-55c-6-58-2-129-3-193h46V0h-61" id="bG"/><path d="M128 0H69L1-190h53L99-40l48-150h52" id="bH"/><g id="w"><use transform="matrix(0.06666666666666667,0,0,0.06666666666666667,0,0)" xlink:href="#aO"/><use transform="matrix(0.06666666666666667,0,0,0.06666666666666667,17.266666666666666,0)" xlink:href="#aP"/><use transform="matrix(0.06666666666666667,0,0,0.06666666666666667,31.866666666666667,0)" xlink:href="#ax"/><use transform="matrix(0.06666666666666667,0,0,0.06666666666666667,39.8,0)" xlink:href="#aQ"/><use transform="matrix(0.06666666666666667,0,0,0.06666666666666667,53.13333333333333,0)" xlink:href="#aw"/><use transform="matrix(0.06666666666666667,0,0,0.06666666666666667,66.46666666666667,0)" xlink:href="#bG"/><use transform="matrix(0.06666666666666667,0,0,0.06666666666666667,83.73333333333333,0)" xlink:href="#aD"/><use transform="matrix(0.06666666666666667,0,0,0.06666666666666667,97.06666666666666,0)" xlink:href="#bH"/></g><path fill="#3a414a" d="M212-179c-10-28-35-45-73-45-59 0-87 40-87 99 0 60 29 101 89 101 43 0 62-24 78-52l27 14C228-24 195 4 139 4 59 4 22-46 18-125c-6-104 99-153 187-111 19 9 31 26 39 46" id="bI"/><path fill="#3a414a" d="M141 0L90-78 38 0H4l68-98-65-92h35l48 74 47-74h35l-64 92 68 98h-35" id="bJ"/><g id="x"><use transform="matrix(0.05,0,0,0.05,0,0)" xlink:href="#bv"/><use transform="matrix(0.05,0,0,0.05,10,0)" xlink:href="#bf"/><use transform="matrix(0.05,0,0,0.05,20,0)" xlink:href="#bn"/><use transform="matrix(0.05,0,0,0.05,25,0)" xlink:href="#bf"/><use transform="matrix(0.05,0,0,0.05,35,0)" xlink:href="#bI"/><use transform="matrix(0.05,0,0,0.05,47.95,0)" xlink:href="#bs"/><use transform="matrix(0.05,0,0,0.05,57.95,0)" xlink:href="#bg"/><use transform="matrix(0.05,0,0,0.05,67.95,0)" xlink:href="#bn"/><use transform="matrix(0.05,0,0,0.05,72.95,0)" xlink:href="#bu"/><use transform="matrix(0.05,0,0,0.05,82.95,0)" xlink:href="#bJ"/><use transform="matrix(0.05,0,0,0.05,91.95,0)" xlink:href="#bn"/></g><path fill="#3a414a" d="M30-248c87 1 191-15 191 75 0 78-77 80-158 76V0H30v-248zm33 125c57 0 124 11 124-50 0-59-68-47-124-48v98" id="bK"/><g id="y"><use transform="matrix(0.06172839506172839,0,0,0.06172839506172839,0,0)" xlink:href="#bK"/><use transform="matrix(0.06172839506172839,0,0,0.06172839506172839,14.814814814814813,0)" xlink:href="#bj"/><use transform="matrix(0.06172839506172839,0,0,0.06172839506172839,22.160493827160494,0)" xlink:href="#bs"/><use transform="matrix(0.06172839506172839,0,0,0.06172839506172839,34.50617283950617,0)" xlink:href="#bz"/><use transform="matrix(0.06172839506172839,0,0,0.06172839506172839,46.85185185185185,0)" xlink:href="#bj"/><use transform="matrix(0.06172839506172839,0,0,0.06172839506172839,54.197530864197525,0)" xlink:href="#bf"/><use transform="matrix(0.06172839506172839,0,0,0.06172839506172839,66.5432098765432,0)" xlink:href="#bA"/></g><g id="z"><use transform="matrix(0.06172839506172839,0,0,0.06172839506172839,0,0)" xlink:href="#bD"/><use transform="matrix(0.06172839506172839,0,0,0.06172839506172839,11.11111111111111,0)" xlink:href="#bn"/><use transform="matrix(0.06172839506172839,0,0,0.06172839506172839,17.28395061728395,0)" xlink:href="#bf"/><use transform="matrix(0.06172839506172839,0,0,0.06172839506172839,29.629629629629626,0)" xlink:href="#bj"/><use transform="matrix(0.06172839506172839,0,0,0.06172839506172839,36.9753086419753,0)" xlink:href="#bn"/></g><path fill="#3a414a" d="M96-269c9-18 26-28 38-43h37v5l-55 38H96zM205 0l-28-72H64L36 0H1l101-248h38L239 0h-34zm-38-99l-47-123c-12 45-31 82-46 123h93" id="bL"/><g id="A"><use transform="matrix(0.06172839506172839,0,0,0.06172839506172839,0,0)" xlink:href="#bL"/><use transform="matrix(0.06172839506172839,0,0,0.06172839506172839,14.814814814814813,0)" xlink:href="#bt"/><use transform="matrix(0.06172839506172839,0,0,0.06172839506172839,19.691358024691354,0)" xlink:href="#bt"/><use transform="matrix(0.06172839506172839,0,0,0.06172839506172839,24.5679012345679,0)" xlink:href="#bs"/><use transform="matrix(0.06172839506172839,0,0,0.06172839506172839,36.913580246913575,0)" xlink:href="#bA"/><use transform="matrix(0.06172839506172839,0,0,0.06172839506172839,55.37037037037037,0)" xlink:href="#bi"/><use transform="matrix(0.06172839506172839,0,0,0.06172839506172839,67.71604938271605,0)" xlink:href="#bg"/><use transform="matrix(0.06172839506172839,0,0,0.06172839506172839,80.06172839506173,0)" xlink:href="#bq"/></g><path fill="#3a414a" d="M100-194c62-1 85 37 85 99 1 63-27 99-86 99S16-35 15-95c0-66 28-99 85-99zM99-20c44 1 53-31 53-75 0-43-8-75-51-75s-53 32-53 75 10 74 51 75zm22-194v-33h29v33h-29zm-69 0v-33h29v33H52" id="bM"/><g id="B"><use transform="matrix(0.06172839506172839,0,0,0.06172839506172839,0,0)" xlink:href="#bx"/><use transform="matrix(0.06172839506172839,0,0,0.06172839506172839,12.345679012345679,0)" xlink:href="#bu"/><use transform="matrix(0.06172839506172839,0,0,0.06172839506172839,24.691358024691358,0)" xlink:href="#bn"/><use transform="matrix(0.06172839506172839,0,0,0.06172839506172839,30.864197530864196,0)" xlink:href="#bM"/><use transform="matrix(0.06172839506172839,0,0,0.06172839506172839,43.20987654320987,0)" xlink:href="#bt"/><use transform="matrix(0.06172839506172839,0,0,0.06172839506172839,48.08641975308642,0)" xlink:href="#bn"/><use transform="matrix(0.06172839506172839,0,0,0.06172839506172839,54.25925925925926,0)" xlink:href="#bl"/><use transform="matrix(0.06172839506172839,0,0,0.06172839506172839,66.60493827160494,0)" xlink:href="#bD"/><use transform="matrix(0.06172839506172839,0,0,0.06172839506172839,77.71604938271605,0)" xlink:href="#bu"/></g><path fill="#3a414a" d="M194 0L95-120 63-95V0H30v-248h33v124l119-124h40L117-140 236 0h-42" id="bN"/><path fill="#3a414a" d="M63-220v92h138v28H63V0H30v-248h175v28H63" id="bO"/><path fill="#3a414a" d="M233-177c-1 41-23 64-60 70L243 0h-38l-65-103H63V0H30v-248c88 3 205-21 203 71zM63-129c60-2 137 13 137-47 0-61-80-42-137-45v92" id="bP"/><g id="C"><use transform="matrix(0.06172839506172839,0,0,0.06172839506172839,0,0)" xlink:href="#bN"/><use transform="matrix(0.06172839506172839,0,0,0.06172839506172839,14.814814814814813,0)" xlink:href="#bh"/><use transform="matrix(0.06172839506172839,0,0,0.06172839506172839,27.160493827160494,0)" xlink:href="#bn"/><use transform="matrix(0.06172839506172839,0,0,0.06172839506172839,33.333333333333336,0)" xlink:href="#bq"/><use transform="matrix(0.06172839506172839,0,0,0.06172839506172839,44.44444444444444,0)" xlink:href="#bf"/><use transform="matrix(0.06172839506172839,0,0,0.06172839506172839,56.79012345679012,0)" xlink:href="#bO"/><use transform="matrix(0.06172839506172839,0,0,0.06172839506172839,70.30864197530863,0)" xlink:href="#bf"/><use transform="matrix(0.06172839506172839,0,0,0.06172839506172839,82.65432098765432,0)" xlink:href="#be"/><use transform="matrix(0.06172839506172839,0,0,0.06172839506172839,87.53086419753086,0)" xlink:href="#bn"/><use transform="matrix(0.06172839506172839,0,0,0.06172839506172839,93.7037037037037,0)" xlink:href="#bf"/><use transform="matrix(0.06172839506172839,0,0,0.06172839506172839,106.04938271604938,0)" xlink:href="#bP"/><use transform="matrix(0.06172839506172839,0,0,0.06172839506172839,122.03703703703704,0)" xlink:href="#bu"/><use transform="matrix(0.06172839506172839,0,0,0.06172839506172839,134.3827160493827,0)" xlink:href="#bB"/><use transform="matrix(0.06172839506172839,0,0,0.06172839506172839,146.72839506172838,0)" xlink:href="#bs"/><use transform="matrix(0.06172839506172839,0,0,0.06172839506172839,159.07407407407405,0)" xlink:href="#bD"/><use transform="matrix(0.06172839506172839,0,0,0.06172839506172839,170.18518518518516,0)" xlink:href="#bE"/><use transform="matrix(0.06172839506172839,0,0,0.06172839506172839,175.0617283950617,0)" xlink:href="#bn"/><use transform="matrix(0.06172839506172839,0,0,0.06172839506172839,181.23456790123453,0)" xlink:href="#bs"/><use transform="matrix(0.06172839506172839,0,0,0.06172839506172839,193.5802469135802,0)" xlink:href="#bj"/><use transform="matrix(0.06172839506172839,0,0,0.06172839506172839,200.92592592592587,0)" xlink:href="#bq"/></g><path d="M195-6C206 82 75 100 31 46c-4-6-6-13-8-21l49-6c3 16 16 24 34 25 40 0 42-37 40-79-11 22-30 35-61 35-53 0-70-43-70-97 0-56 18-96 73-97 30 0 46 14 59 34l2-30h47zm-90-29c32 0 41-27 41-63 0-35-9-62-40-62-32 0-39 29-40 63 0 36 9 62 39 62" id="bQ"/><path d="M220-157c-53 9-28 100-34 157h-49v-107c1-27-5-49-29-50C55-147 81-57 75 0H25l-1-190h47c2 12-1 28 3 38 10-53 101-56 108 0 13-22 24-43 59-42 82 1 51 116 57 194h-49v-107c-1-25-5-48-29-50" id="bR"/><g id="D"><use transform="matrix(0.08710715169512497,0,0,0.08710715169512497,0,0)" xlink:href="#aL"/><use transform="matrix(0.08710715169512497,0,0,0.08710715169512497,22.56075228903737,0)" xlink:href="#au"/><use transform="matrix(0.08710715169512497,0,0,0.08710715169512497,31.27146745854987,0)" xlink:href="#aw"/><use transform="matrix(0.08710715169512497,0,0,0.08710715169512497,48.692897797574865,0)" xlink:href="#bQ"/><use transform="matrix(0.08710715169512497,0,0,0.08710715169512497,67.76936401880724,0)" xlink:href="#aB"/><use transform="matrix(0.08710715169512497,0,0,0.08710715169512497,79.96436525612474,0)" xlink:href="#aw"/><use transform="matrix(0.08710715169512497,0,0,0.08710715169512497,97.38579559514973,0)" xlink:href="#bR"/></g><g id="E"><use transform="matrix(0.08710715169512497,0,0,0.08710715169512497,0,0)" xlink:href="#aC"/><use transform="matrix(0.08710715169512497,0,0,0.08710715169512497,17.421430339024994,0)" xlink:href="#aD"/><use transform="matrix(0.08710715169512497,0,0,0.08710715169512497,34.84286067804999,0)" xlink:href="#aQ"/></g><path d="M240 0l2-218c-23 76-54 145-80 218h-23L58-218 59 0H30v-248h44l77 211c21-75 51-140 76-211h43V0h-30" id="bS"/><path d="M106-169C34-169 62-67 57 0H25v-261h32l-1 103c12-21 28-36 61-36 89 0 53 116 60 194h-32v-121c2-32-8-49-39-48" id="bT"/><path d="M85-194c31 0 48 13 60 33l-1-100h32l1 261h-30c-2-10 0-23-3-31C134-8 116 4 85 4 32 4 16-35 15-94c0-66 23-100 70-100zm9 24c-40 0-46 34-46 75 0 40 6 74 45 74 42 0 51-32 51-76 0-42-9-74-50-73" id="bU"/><g id="F"><use transform="matrix(0.08710715169512497,0,0,0.08710715169512497,0,0)" xlink:href="#bS"/><use transform="matrix(0.08710715169512497,0,0,0.08710715169512497,26.04503835684237,0)" xlink:href="#aU"/><use transform="matrix(0.08710715169512497,0,0,0.08710715169512497,43.46646869586736,0)" xlink:href="#aF"/><use transform="matrix(0.08710715169512497,0,0,0.08710715169512497,52.17718386537987,0)" xlink:href="#bT"/><use transform="matrix(0.08710715169512497,0,0,0.08710715169512497,69.59861420440485,0)" xlink:href="#aW"/><use transform="matrix(0.08710715169512497,0,0,0.08710715169512497,87.02004454342985,0)" xlink:href="#bU"/></g><path d="M205 0l-28-72H64L36 0H1l101-248h38L239 0h-34zm-38-99l-47-123c-12 45-31 82-46 123h93" id="bV"/><path d="M115-194c53 0 69 39 70 98 0 66-23 100-70 100C84 3 66-7 56-30L54 0H23l1-261h32v101c10-23 28-34 59-34zm-8 174c40 0 45-34 45-75 0-40-5-75-45-74-42 0-51 32-51 76 0 43 10 73 51 73" id="bW"/><path d="M84 4C-5 8 30-112 23-190h32v120c0 31 7 50 39 49 72-2 45-101 50-169h31l1 190h-30c-1-10 1-25-2-33-11 22-28 36-60 37" id="bX"/><g id="G"><use transform="matrix(0.08710715169512497,0,0,0.08710715169512497,0,0)" xlink:href="#bV"/><use transform="matrix(0.08710715169512497,0,0,0.08710715169512497,20.905716406829995,0)" xlink:href="#aF"/><use transform="matrix(0.08710715169512497,0,0,0.08710715169512497,29.616431576342492,0)" xlink:href="#aF"/><use transform="matrix(0.08710715169512497,0,0,0.08710715169512497,38.32714674585499,0)" xlink:href="#aX"/><use transform="matrix(0.08710715169512497,0,0,0.08710715169512497,48.69289779757486,0)" xlink:href="#aH"/><use transform="matrix(0.08710715169512497,0,0,0.08710715169512497,55.574362781489725,0)" xlink:href="#bW"/><use transform="matrix(0.08710715169512497,0,0,0.08710715169512497,72.99579312051473,0)" xlink:href="#bX"/><use transform="matrix(0.08710715169512497,0,0,0.08710715169512497,90.41722345953973,0)" xlink:href="#aF"/><use transform="matrix(0.08710715169512497,0,0,0.08710715169512497,99.12793862905221,0)" xlink:href="#aU"/></g><path d="M30 0v-248h187v28H63v79h144v27H63v87h162V0H30" id="bY"/><path d="M108 0H70L1-190h34L89-25l56-165h34" id="bZ"/><path d="M117-194c89-4 53 116 60 194h-32v-121c0-31-8-49-39-48C34-167 62-67 57 0H25l-1-190h30c1 10-1 24 2 32 11-22 29-35 61-36" id="ca"/><g id="H"><use transform="matrix(0.08710715169512497,0,0,0.08710715169512497,0,0)" xlink:href="#bY"/><use transform="matrix(0.08710715169512497,0,0,0.08710715169512497,20.905716406829995,0)" xlink:href="#bZ"/><use transform="matrix(0.08710715169512497,0,0,0.08710715169512497,36.585003711952496,0)" xlink:href="#aU"/><use transform="matrix(0.08710715169512497,0,0,0.08710715169512497,54.00643405097749,0)" xlink:href="#ca"/><use transform="matrix(0.08710715169512497,0,0,0.08710715169512497,71.42786439000248,0)" xlink:href="#aF"/></g><path d="M30-248c87 1 191-15 191 75 0 78-77 80-158 76V0H30v-248zm33 125c57 0 124 11 124-50 0-59-68-47-124-48v98" id="cb"/><g id="I"><use transform="matrix(0.08710715169512497,0,0,0.08710715169512497,0,0)" xlink:href="#cb"/><use transform="matrix(0.08710715169512497,0,0,0.08710715169512497,20.905716406829995,0)" xlink:href="#aX"/><use transform="matrix(0.08710715169512497,0,0,0.08710715169512497,31.271467458549868,0)" xlink:href="#aW"/><use transform="matrix(0.08710715169512497,0,0,0.08710715169512497,48.692897797574865,0)" xlink:href="#aI"/><use transform="matrix(0.08710715169512497,0,0,0.08710715169512497,64.37218510269736,0)" xlink:href="#aU"/><use transform="matrix(0.08710715169512497,0,0,0.08710715169512497,81.79361544172235,0)" xlink:href="#bU"/><use transform="matrix(0.08710715169512497,0,0,0.08710715169512497,99.21504578074736,0)" xlink:href="#bX"/><use transform="matrix(0.08710715169512497,0,0,0.08710715169512497,116.63647611977235,0)" xlink:href="#aX"/><use transform="matrix(0.08710715169512497,0,0,0.08710715169512497,127.00222717149222,0)" xlink:href="#aU"/></g><g id="J"><use transform="matrix(0.08710715169512497,0,0,0.08710715169512497,0,0)" xlink:href="#aI"/><use transform="matrix(0.08710715169512497,0,0,0.08710715169512497,15.679287305122493,0)" xlink:href="#aW"/><use transform="matrix(0.08710715169512497,0,0,0.08710715169512497,33.100717644147494,0)" xlink:href="#ca"/><use transform="matrix(0.08710715169512497,0,0,0.08710715169512497,50.52214798317249,0)" xlink:href="#ca"/><use transform="matrix(0.08710715169512497,0,0,0.08710715169512497,67.94357832219748,0)" xlink:href="#aU"/><use transform="matrix(0.08710715169512497,0,0,0.08710715169512497,85.36500866122248,0)" xlink:href="#aI"/><use transform="matrix(0.08710715169512497,0,0,0.08710715169512497,101.04429596634498,0)" xlink:href="#aF"/><use transform="matrix(0.08710715169512497,0,0,0.08710715169512497,109.75501113585747,0)" xlink:href="#aH"/><use transform="matrix(0.08710715169512497,0,0,0.08710715169512497,116.63647611977235,0)" xlink:href="#aW"/><use transform="matrix(0.08710715169512497,0,0,0.08710715169512497,134.05790645879733,0)" xlink:href="#ca"/></g><path d="M30-248c118-7 216 8 213 122C240-48 200 0 122 0H30v-248zM63-27c89 8 146-16 146-99s-60-101-146-95v194" id="cc"/><g id="K"><use transform="matrix(0.08710715169512497,0,0,0.08710715169512497,0,0)" xlink:href="#cc"/><use transform="matrix(0.08710715169512497,0,0,0.08710715169512497,22.56075228903737,0)" xlink:href="#aG"/><use transform="matrix(0.08710715169512497,0,0,0.08710715169512497,39.98218262806237,0)" xlink:href="#aF"/><use transform="matrix(0.08710715169512497,0,0,0.08710715169512497,48.692897797574865,0)" xlink:href="#aG"/></g><g id="L"><use transform="matrix(0.06172839506172839,0,0,0.06172839506172839,0,0)" xlink:href="#bN"/><use transform="matrix(0.06172839506172839,0,0,0.06172839506172839,14.814814814814813,0)" xlink:href="#bh"/><use transform="matrix(0.06172839506172839,0,0,0.06172839506172839,27.160493827160494,0)" xlink:href="#bn"/><use transform="matrix(0.06172839506172839,0,0,0.06172839506172839,33.333333333333336,0)" xlink:href="#bq"/><use transform="matrix(0.06172839506172839,0,0,0.06172839506172839,44.44444444444444,0)" xlink:href="#bf"/><use transform="matrix(0.06172839506172839,0,0,0.06172839506172839,56.79012345679012,0)" xlink:href="#bP"/><use transform="matrix(0.06172839506172839,0,0,0.06172839506172839,72.77777777777777,0)" xlink:href="#bu"/><use transform="matrix(0.06172839506172839,0,0,0.06172839506172839,85.12345679012346,0)" xlink:href="#bB"/><use transform="matrix(0.06172839506172839,0,0,0.06172839506172839,97.46913580246914,0)" xlink:href="#bs"/><use transform="matrix(0.06172839506172839,0,0,0.06172839506172839,109.81481481481482,0)" xlink:href="#bD"/><use transform="matrix(0.06172839506172839,0,0,0.06172839506172839,120.92592592592594,0)" xlink:href="#bE"/><use transform="matrix(0.06172839506172839,0,0,0.06172839506172839,125.80246913580248,0)" xlink:href="#bn"/><use transform="matrix(0.06172839506172839,0,0,0.06172839506172839,131.97530864197532,0)" xlink:href="#bs"/><use transform="matrix(0.06172839506172839,0,0,0.06172839506172839,144.320987654321,0)" xlink:href="#bj"/><use transform="matrix(0.06172839506172839,0,0,0.06172839506172839,151.66666666666666,0)" xlink:href="#bq"/></g><g id="M"><use transform="matrix(0.06172839506172839,0,0,0.06172839506172839,0,0)" xlink:href="#bN"/><use transform="matrix(0.06172839506172839,0,0,0.06172839506172839,14.814814814814813,0)" xlink:href="#bh"/><use transform="matrix(0.06172839506172839,0,0,0.06172839506172839,27.160493827160494,0)" xlink:href="#bn"/><use transform="matrix(0.06172839506172839,0,0,0.06172839506172839,33.333333333333336,0)" xlink:href="#bq"/><use transform="matrix(0.06172839506172839,0,0,0.06172839506172839,44.44444444444444,0)" xlink:href="#bf"/><use transform="matrix(0.06172839506172839,0,0,0.06172839506172839,56.79012345679012,0)" xlink:href="#bC"/><use transform="matrix(0.06172839506172839,0,0,0.06172839506172839,72.77777777777777,0)" xlink:href="#bu"/><use transform="matrix(0.06172839506172839,0,0,0.06172839506172839,85.12345679012346,0)" xlink:href="#br"/><use transform="matrix(0.06172839506172839,0,0,0.06172839506172839,96.23456790123457,0)" xlink:href="#bP"/><use transform="matrix(0.06172839506172839,0,0,0.06172839506172839,112.22222222222223,0)" xlink:href="#bu"/><use transform="matrix(0.06172839506172839,0,0,0.06172839506172839,124.56790123456791,0)" xlink:href="#bB"/><use transform="matrix(0.06172839506172839,0,0,0.06172839506172839,136.9135802469136,0)" xlink:href="#bs"/><use transform="matrix(0.06172839506172839,0,0,0.06172839506172839,149.25925925925927,0)" xlink:href="#bD"/><use transform="matrix(0.06172839506172839,0,0,0.06172839506172839,160.37037037037038,0)" xlink:href="#bE"/><use transform="matrix(0.06172839506172839,0,0,0.06172839506172839,165.2469135802469,0)" xlink:href="#bn"/><use transform="matrix(0.06172839506172839,0,0,0.06172839506172839,171.41975308641975,0)" xlink:href="#bs"/><use transform="matrix(0.06172839506172839,0,0,0.06172839506172839,183.76543209876542,0)" xlink:href="#bj"/><use transform="matrix(0.06172839506172839,0,0,0.06172839506172839,191.1111111111111,0)" xlink:href="#bq"/></g><g id="N"><use transform="matrix(0.06172839506172839,0,0,0.06172839506172839,0,0)" xlink:href="#bi"/><use transform="matrix(0.06172839506172839,0,0,0.06172839506172839,12.345679012345679,0)" xlink:href="#bt"/><use transform="matrix(0.06172839506172839,0,0,0.06172839506172839,17.22222222222222,0)" xlink:href="#bt"/><use transform="matrix(0.06172839506172839,0,0,0.06172839506172839,22.098765432098766,0)" xlink:href="#bs"/><use transform="matrix(0.06172839506172839,0,0,0.06172839506172839,34.44444444444444,0)" xlink:href="#bA"/><use transform="matrix(0.06172839506172839,0,0,0.06172839506172839,52.90123456790123,0)" xlink:href="#bi"/><use transform="matrix(0.06172839506172839,0,0,0.06172839506172839,65.24691358024691,0)" xlink:href="#bg"/><use transform="matrix(0.06172839506172839,0,0,0.06172839506172839,77.5925925925926,0)" xlink:href="#bq"/></g><g id="O"><use transform="matrix(0.06172839506172839,0,0,0.06172839506172839,0,0)" xlink:href="#bu"/><use transform="matrix(0.06172839506172839,0,0,0.06172839506172839,12.345679012345679,0)" xlink:href="#bt"/><use transform="matrix(0.06172839506172839,0,0,0.06172839506172839,17.22222222222222,0)" xlink:href="#bl"/><use transform="matrix(0.06172839506172839,0,0,0.06172839506172839,29.5679012345679,0)" xlink:href="#bj"/><use transform="matrix(0.06172839506172839,0,0,0.06172839506172839,36.913580246913575,0)" xlink:href="#bl"/><use transform="matrix(0.06172839506172839,0,0,0.06172839506172839,49.25925925925925,0)" xlink:href="#bD"/><use transform="matrix(0.06172839506172839,0,0,0.06172839506172839,60.37037037037037,0)" xlink:href="#bE"/></g><path fill="#3a414a" d="M85 4C-4 8 31-112 24-190h32v120c0 31 7 50 39 49 72-2 45-101 50-169h31l1 190h-30c-1-10 1-25-2-33-11 22-28 36-60 37zM73-211c8-23 27-35 38-54h36v5l-58 49H73" id="cd"/><g id="P"><use transform="matrix(0.06172839506172839,0,0,0.06172839506172839,0,0)" xlink:href="#cd"/><use transform="matrix(0.06172839506172839,0,0,0.06172839506172839,12.345679012345679,0)" xlink:href="#bn"/></g><path fill="#3a414a" d="M18-100v-36l175-74v27L42-118l151 64v27" id="ce"/><path fill="#3a414a" d="M18-27v-27l151-64-151-65v-27l175 74v36" id="cf"/><g id="Q"><use transform="matrix(0.06172839506172839,0,0,0.06172839506172839,0,0)" xlink:href="#bt"/><use transform="matrix(0.06172839506172839,0,0,0.06172839506172839,4.876543209876543,0)" xlink:href="#bE"/><use transform="matrix(0.06172839506172839,0,0,0.06172839506172839,9.753086419753085,0)" xlink:href="#bD"/><use transform="matrix(0.06172839506172839,0,0,0.06172839506172839,20.864197530864196,0)" xlink:href="#bn"/><use transform="matrix(0.06172839506172839,0,0,0.06172839506172839,27.037037037037035,0)" xlink:href="#ce"/><use transform="matrix(0.06172839506172839,0,0,0.06172839506172839,40,0)" xlink:href="#bN"/><use transform="matrix(0.06172839506172839,0,0,0.06172839506172839,54.81481481481481,0)" xlink:href="#bh"/><use transform="matrix(0.06172839506172839,0,0,0.06172839506172839,67.1604938271605,0)" xlink:href="#bn"/><use transform="matrix(0.06172839506172839,0,0,0.06172839506172839,73.33333333333333,0)" xlink:href="#bq"/><use transform="matrix(0.06172839506172839,0,0,0.06172839506172839,84.44444444444444,0)" xlink:href="#bf"/><use transform="matrix(0.06172839506172839,0,0,0.06172839506172839,96.79012345679013,0)" xlink:href="#bO"/><use transform="matrix(0.06172839506172839,0,0,0.06172839506172839,110.30864197530865,0)" xlink:href="#bf"/><use transform="matrix(0.06172839506172839,0,0,0.06172839506172839,122.65432098765433,0)" xlink:href="#be"/><use transform="matrix(0.06172839506172839,0,0,0.06172839506172839,127.53086419753089,0)" xlink:href="#bn"/><use transform="matrix(0.06172839506172839,0,0,0.06172839506172839,133.70370370370372,0)" xlink:href="#bf"/><use transform="matrix(0.06172839506172839,0,0,0.06172839506172839,146.0493827160494,0)" xlink:href="#cf"/></g><g id="R"><use transform="matrix(0.06172839506172839,0,0,0.06172839506172839,0,0)" xlink:href="#bi"/><use transform="matrix(0.06172839506172839,0,0,0.06172839506172839,12.345679012345679,0)" xlink:href="#bn"/><use transform="matrix(0.06172839506172839,0,0,0.06172839506172839,18.51851851851852,0)" xlink:href="#bt"/><use transform="matrix(0.06172839506172839,0,0,0.06172839506172839,23.395061728395063,0)" xlink:href="#bf"/><use transform="matrix(0.06172839506172839,0,0,0.06172839506172839,35.74074074074074,0)" xlink:href="#bz"/><use transform="matrix(0.06172839506172839,0,0,0.06172839506172839,48.08641975308642,0)" xlink:href="#bs"/><use transform="matrix(0.06172839506172839,0,0,0.06172839506172839,60.432098765432094,0)" xlink:href="#bD"/></g><path fill="#3a414a" d="M33-154v-36h34v36H33zM33 0v-36h34V0H33" id="cg"/><g id="S"><use transform="matrix(0.06172839506172839,0,0,0.06172839506172839,0,0)" xlink:href="#bl"/><use transform="matrix(0.06172839506172839,0,0,0.06172839506172839,12.345679012345679,0)" xlink:href="#bt"/><use transform="matrix(0.06172839506172839,0,0,0.06172839506172839,17.22222222222222,0)" xlink:href="#bu"/><use transform="matrix(0.06172839506172839,0,0,0.06172839506172839,29.5679012345679,0)" xlink:href="#bn"/><use transform="matrix(0.06172839506172839,0,0,0.06172839506172839,35.74074074074074,0)" xlink:href="#bo"/><use transform="matrix(0.06172839506172839,0,0,0.06172839506172839,46.85185185185185,0)" xlink:href="#bs"/><use transform="matrix(0.06172839506172839,0,0,0.06172839506172839,59.197530864197525,0)" xlink:href="#bj"/><use transform="matrix(0.06172839506172839,0,0,0.06172839506172839,66.5432098765432,0)" xlink:href="#cg"/></g><g id="T"><use transform="matrix(0.06172839506172839,0,0,0.06172839506172839,0,0)" xlink:href="#bE"/><use transform="matrix(0.06172839506172839,0,0,0.06172839506172839,4.876543209876543,0)" xlink:href="#bg"/><use transform="matrix(0.06172839506172839,0,0,0.06172839506172839,17.22222222222222,0)" xlink:href="#bn"/><use transform="matrix(0.06172839506172839,0,0,0.06172839506172839,23.39506172839506,0)" xlink:href="#bu"/><use transform="matrix(0.06172839506172839,0,0,0.06172839506172839,35.74074074074074,0)" xlink:href="#bz"/><use transform="matrix(0.06172839506172839,0,0,0.06172839506172839,48.08641975308642,0)" xlink:href="#bu"/><use transform="matrix(0.06172839506172839,0,0,0.06172839506172839,60.432098765432094,0)" xlink:href="#bj"/></g><g id="U"><use transform="matrix(0.06172839506172839,0,0,0.06172839506172839,0,0)" xlink:href="#bt"/><use transform="matrix(0.06172839506172839,0,0,0.06172839506172839,4.876543209876543,0)" xlink:href="#bE"/><use transform="matrix(0.06172839506172839,0,0,0.06172839506172839,9.753086419753085,0)" xlink:href="#bD"/><use transform="matrix(0.06172839506172839,0,0,0.06172839506172839,20.864197530864196,0)" xlink:href="#bn"/><use transform="matrix(0.06172839506172839,0,0,0.06172839506172839,27.037037037037035,0)" xlink:href="#ce"/><use transform="matrix(0.06172839506172839,0,0,0.06172839506172839,40,0)" xlink:href="#bN"/><use transform="matrix(0.06172839506172839,0,0,0.06172839506172839,54.81481481481481,0)" xlink:href="#bh"/><use transform="matrix(0.06172839506172839,0,0,0.06172839506172839,67.1604938271605,0)" xlink:href="#bn"/><use transform="matrix(0.06172839506172839,0,0,0.06172839506172839,73.33333333333333,0)" xlink:href="#bq"/><use transform="matrix(0.06172839506172839,0,0,0.06172839506172839,84.44444444444444,0)" xlink:href="#bf"/><use transform="matrix(0.06172839506172839,0,0,0.06172839506172839,96.79012345679013,0)" xlink:href="#cf"/></g><g id="V"><use transform="matrix(0.06172839506172839,0,0,0.06172839506172839,0,0)" xlink:href="#bm"/><use transform="matrix(0.06172839506172839,0,0,0.06172839506172839,6.172839506172839,0)" xlink:href="#bs"/><use transform="matrix(0.06172839506172839,0,0,0.06172839506172839,18.51851851851852,0)" xlink:href="#bj"/><use transform="matrix(0.06172839506172839,0,0,0.06172839506172839,25.864197530864196,0)" xlink:href="#bz"/><use transform="matrix(0.06172839506172839,0,0,0.06172839506172839,38.20987654320987,0)" xlink:href="#bf"/><use transform="matrix(0.06172839506172839,0,0,0.06172839506172839,50.55555555555555,0)" xlink:href="#bt"/><use transform="matrix(0.06172839506172839,0,0,0.06172839506172839,55.432098765432094,0)" xlink:href="#bs"/><use transform="matrix(0.06172839506172839,0,0,0.06172839506172839,67.77777777777777,0)" xlink:href="#bA"/></g><g id="W"><use transform="matrix(0.06172839506172839,0,0,0.06172839506172839,0,0)" xlink:href="#bt"/><use transform="matrix(0.06172839506172839,0,0,0.06172839506172839,4.876543209876543,0)" xlink:href="#bu"/><use transform="matrix(0.06172839506172839,0,0,0.06172839506172839,17.22222222222222,0)" xlink:href="#bo"/><use transform="matrix(0.06172839506172839,0,0,0.06172839506172839,28.333333333333332,0)" xlink:href="#bl"/><use transform="matrix(0.06172839506172839,0,0,0.06172839506172839,40.67901234567901,0)" xlink:href="#bj"/><use transform="matrix(0.06172839506172839,0,0,0.06172839506172839,48.02469135802469,0)" xlink:href="#bl"/><use transform="matrix(0.06172839506172839,0,0,0.06172839506172839,60.37037037037037,0)" xlink:href="#bD"/><use transform="matrix(0.06172839506172839,0,0,0.06172839506172839,71.48148148148148,0)" xlink:href="#bu"/></g><g id="X"><use transform="matrix(0.06172839506172839,0,0,0.06172839506172839,0,0)" xlink:href="#bu"/><use transform="matrix(0.06172839506172839,0,0,0.06172839506172839,12.345679012345679,0)" xlink:href="#bz"/><use transform="matrix(0.06172839506172839,0,0,0.06172839506172839,24.691358024691358,0)" xlink:href="#bq"/></g><g id="Y"><use transform="matrix(0.06172839506172839,0,0,0.06172839506172839,0,0)" xlink:href="#bg"/><use transform="matrix(0.06172839506172839,0,0,0.06172839506172839,12.345679012345679,0)" xlink:href="#bf"/><use transform="matrix(0.06172839506172839,0,0,0.06172839506172839,24.691358024691358,0)" xlink:href="#bB"/><use transform="matrix(0.06172839506172839,0,0,0.06172839506172839,37.03703703703704,0)" xlink:href="#bs"/><use transform="matrix(0.06172839506172839,0,0,0.06172839506172839,49.382716049382715,0)" xlink:href="#bg"/><use transform="matrix(0.06172839506172839,0,0,0.06172839506172839,61.72839506172839,0)" xlink:href="#cg"/></g><g id="Z"><use transform="matrix(0.06172839506172839,0,0,0.06172839506172839,0,0)" xlink:href="#bt"/><use transform="matrix(0.06172839506172839,0,0,0.06172839506172839,4.876543209876543,0)" xlink:href="#bE"/><use transform="matrix(0.06172839506172839,0,0,0.06172839506172839,9.753086419753085,0)" xlink:href="#bD"/><use transform="matrix(0.06172839506172839,0,0,0.06172839506172839,20.864197530864196,0)" xlink:href="#bn"/><use transform="matrix(0.06172839506172839,0,0,0.06172839506172839,27.037037037037035,0)" xlink:href="#ce"/><use transform="matrix(0.06172839506172839,0,0,0.06172839506172839,40,0)" xlink:href="#bo"/><use transform="matrix(0.06172839506172839,0,0,0.06172839506172839,51.111111111111114,0)" xlink:href="#bh"/><use transform="matrix(0.06172839506172839,0,0,0.06172839506172839,63.456790123456784,0)" xlink:href="#bn"/><use transform="matrix(0.06172839506172839,0,0,0.06172839506172839,69.62962962962963,0)" xlink:href="#bq"/><use transform="matrix(0.06172839506172839,0,0,0.06172839506172839,80.74074074074075,0)" xlink:href="#bf"/><use transform="matrix(0.06172839506172839,0,0,0.06172839506172839,93.08641975308643,0)" xlink:href="#cf"/></g><g id="aa"><use transform="matrix(0.06172839506172839,0,0,0.06172839506172839,0,0)" xlink:href="#bt"/><use transform="matrix(0.06172839506172839,0,0,0.06172839506172839,4.876543209876543,0)" xlink:href="#bE"/><use transform="matrix(0.06172839506172839,0,0,0.06172839506172839,9.753086419753085,0)" xlink:href="#bD"/><use transform="matrix(0.06172839506172839,0,0,0.06172839506172839,20.864197530864196,0)" xlink:href="#bn"/><use transform="matrix(0.06172839506172839,0,0,0.06172839506172839,27.037037037037035,0)" xlink:href="#bf"/></g><path fill="#3a414a" d="M96-169c-40 0-48 33-48 73s9 75 48 75c24 0 41-14 43-38l32 2c-6 37-31 61-74 61-59 0-76-41-82-99-10-93 101-131 147-64 4 7 5 14 7 22l-32 3c-4-21-16-35-41-35" id="ch"/><path fill="#3a414a" d="M34 0v-190h32V0H34zM24-211c8-23 27-35 38-54h36v5l-58 49H24" id="ci"/><g id="ab"><use transform="matrix(0.06172839506172839,0,0,0.06172839506172839,0,0)" xlink:href="#ch"/><use transform="matrix(0.06172839506172839,0,0,0.06172839506172839,11.11111111111111,0)" xlink:href="#bD"/><use transform="matrix(0.06172839506172839,0,0,0.06172839506172839,22.22222222222222,0)" xlink:href="#bs"/><use transform="matrix(0.06172839506172839,0,0,0.06172839506172839,34.5679012345679,0)" xlink:href="#bB"/><use transform="matrix(0.06172839506172839,0,0,0.06172839506172839,46.913580246913575,0)" xlink:href="#bs"/><use transform="matrix(0.06172839506172839,0,0,0.06172839506172839,59.25925925925925,0)" xlink:href="#bj"/><use transform="matrix(0.06172839506172839,0,0,0.06172839506172839,66.60493827160494,0)" xlink:href="#bn"/><use transform="matrix(0.06172839506172839,0,0,0.06172839506172839,72.77777777777777,0)" xlink:href="#bs"/><use transform="matrix(0.06172839506172839,0,0,0.06172839506172839,85.12345679012346,0)" xlink:href="#bD"/><use transform="matrix(0.06172839506172839,0,0,0.06172839506172839,96.23456790123457,0)" xlink:href="#ci"/><use transform="matrix(0.06172839506172839,0,0,0.06172839506172839,102.4074074074074,0)" xlink:href="#bn"/><use transform="matrix(0.06172839506172839,0,0,0.06172839506172839,108.58024691358024,0)" xlink:href="#bi"/><use transform="matrix(0.06172839506172839,0,0,0.06172839506172839,120.92592592592592,0)" xlink:href="#bD"/><use transform="matrix(0.06172839506172839,0,0,0.06172839506172839,132.03703703703704,0)" xlink:href="#bf"/></g><g id="ac"><use transform="matrix(0.06172839506172839,0,0,0.06172839506172839,0,0)" xlink:href="#bm"/><use transform="matrix(0.06172839506172839,0,0,0.06172839506172839,6.172839506172839,0)" xlink:href="#bf"/><use transform="matrix(0.06172839506172839,0,0,0.06172839506172839,18.51851851851852,0)" xlink:href="#be"/></g><g id="ad"><use transform="matrix(0.06172839506172839,0,0,0.06172839506172839,0,0)" xlink:href="#bf"/><use transform="matrix(0.06172839506172839,0,0,0.06172839506172839,12.345679012345679,0)" xlink:href="#bt"/><use transform="matrix(0.06172839506172839,0,0,0.06172839506172839,17.22222222222222,0)" xlink:href="#bf"/><use transform="matrix(0.06172839506172839,0,0,0.06172839506172839,29.5679012345679,0)" xlink:href="#bB"/><use transform="matrix(0.06172839506172839,0,0,0.06172839506172839,41.913580246913575,0)" xlink:href="#be"/><use transform="matrix(0.06172839506172839,0,0,0.06172839506172839,46.79012345679012,0)" xlink:href="#bi"/><use transform="matrix(0.06172839506172839,0,0,0.06172839506172839,59.1358024691358,0)" xlink:href="#bg"/><use transform="matrix(0.06172839506172839,0,0,0.06172839506172839,71.48148148148148,0)" xlink:href="#cg"/></g><g id="ae"><use transform="matrix(0.06172839506172839,0,0,0.06172839506172839,0,0)" xlink:href="#bt"/><use transform="matrix(0.06172839506172839,0,0,0.06172839506172839,4.876543209876543,0)" xlink:href="#bE"/><use transform="matrix(0.06172839506172839,0,0,0.06172839506172839,9.753086419753085,0)" xlink:href="#bD"/><use transform="matrix(0.06172839506172839,0,0,0.06172839506172839,20.864197530864196,0)" xlink:href="#bn"/></g><g id="af"><use transform="matrix(0.06172839506172839,0,0,0.06172839506172839,0,0)" xlink:href="#bi"/><use transform="matrix(0.06172839506172839,0,0,0.06172839506172839,12.345679012345679,0)" xlink:href="#bt"/><use transform="matrix(0.06172839506172839,0,0,0.06172839506172839,17.22222222222222,0)" xlink:href="#bt"/><use transform="matrix(0.06172839506172839,0,0,0.06172839506172839,22.098765432098766,0)" xlink:href="#bs"/><use transform="matrix(0.06172839506172839,0,0,0.06172839506172839,34.44444444444444,0)" xlink:href="#bg"/><use transform="matrix(0.06172839506172839,0,0,0.06172839506172839,46.79012345679012,0)" xlink:href="#bi"/><use transform="matrix(0.06172839506172839,0,0,0.06172839506172839,59.1358024691358,0)" xlink:href="#bg"/><use transform="matrix(0.06172839506172839,0,0,0.06172839506172839,71.48148148148148,0)" xlink:href="#bq"/></g><g id="ag"><use transform="matrix(0.06172839506172839,0,0,0.06172839506172839,0,0)" xlink:href="#ch"/><use transform="matrix(0.06172839506172839,0,0,0.06172839506172839,11.11111111111111,0)" xlink:href="#bD"/><use transform="matrix(0.06172839506172839,0,0,0.06172839506172839,22.22222222222222,0)" xlink:href="#bs"/><use transform="matrix(0.06172839506172839,0,0,0.06172839506172839,34.5679012345679,0)" xlink:href="#bB"/><use transform="matrix(0.06172839506172839,0,0,0.06172839506172839,46.913580246913575,0)" xlink:href="#bs"/><use transform="matrix(0.06172839506172839,0,0,0.06172839506172839,59.25925925925925,0)" xlink:href="#bj"/><use transform="matrix(0.06172839506172839,0,0,0.06172839506172839,66.60493827160494,0)" xlink:href="#bn"/><use transform="matrix(0.06172839506172839,0,0,0.06172839506172839,72.77777777777777,0)" xlink:href="#bs"/><use transform="matrix(0.06172839506172839,0,0,0.06172839506172839,85.12345679012346,0)" xlink:href="#bD"/><use transform="matrix(0.06172839506172839,0,0,0.06172839506172839,96.23456790123457,0)" xlink:href="#ci"/><use transform="matrix(0.06172839506172839,0,0,0.06172839506172839,102.4074074074074,0)" xlink:href="#bn"/><use transform="matrix(0.06172839506172839,0,0,0.06172839506172839,108.58024691358024,0)" xlink:href="#bi"/><use transform="matrix(0.06172839506172839,0,0,0.06172839506172839,120.92592592592592,0)" xlink:href="#bD"/><use transform="matrix(0.06172839506172839,0,0,0.06172839506172839,132.03703703703704,0)" xlink:href="#bf"/></g><g id="ah"><use transform="matrix(0.06172839506172839,0,0,0.06172839506172839,0,0)" xlink:href="#bg"/><use transform="matrix(0.06172839506172839,0,0,0.06172839506172839,12.345679012345679,0)" xlink:href="#bf"/><use transform="matrix(0.06172839506172839,0,0,0.06172839506172839,24.691358024691358,0)" xlink:href="#bB"/><use transform="matrix(0.06172839506172839,0,0,0.06172839506172839,37.03703703703704,0)" xlink:href="#bs"/><use transform="matrix(0.06172839506172839,0,0,0.06172839506172839,49.382716049382715,0)" xlink:href="#bo"/></g><g id="ai"><use transform="matrix(0.06172839506172839,0,0,0.06172839506172839,0,0)" xlink:href="#bf"/><use transform="matrix(0.06172839506172839,0,0,0.06172839506172839,12.345679012345679,0)" xlink:href="#bt"/><use transform="matrix(0.06172839506172839,0,0,0.06172839506172839,17.22222222222222,0)" xlink:href="#bf"/><use transform="matrix(0.06172839506172839,0,0,0.06172839506172839,29.5679012345679,0)" xlink:href="#bB"/><use transform="matrix(0.06172839506172839,0,0,0.06172839506172839,41.913580246913575,0)" xlink:href="#be"/><use transform="matrix(0.06172839506172839,0,0,0.06172839506172839,46.79012345679012,0)" xlink:href="#bi"/><use transform="matrix(0.06172839506172839,0,0,0.06172839506172839,59.1358024691358,0)" xlink:href="#bg"/></g><g id="aj"><use transform="matrix(0.06172839506172839,0,0,0.06172839506172839,0,0)" xlink:href="#bt"/><use transform="matrix(0.06172839506172839,0,0,0.06172839506172839,4.876543209876543,0)" xlink:href="#bE"/><use transform="matrix(0.06172839506172839,0,0,0.06172839506172839,9.753086419753085,0)" xlink:href="#bD"/><use transform="matrix(0.06172839506172839,0,0,0.06172839506172839,20.864197530864196,0)" xlink:href="#bn"/><use transform="matrix(0.06172839506172839,0,0,0.06172839506172839,27.037037037037035,0)" xlink:href="#ce"/><use transform="matrix(0.06172839506172839,0,0,0.06172839506172839,40,0)" xlink:href="#bo"/><use transform="matrix(0.06172839506172839,0,0,0.06172839506172839,51.111111111111114,0)" xlink:href="#bh"/><use transform="matrix(0.06172839506172839,0,0,0.06172839506172839,63.456790123456784,0)" xlink:href="#bn"/><use transform="matrix(0.06172839506172839,0,0,0.06172839506172839,69.62962962962963,0)" xlink:href="#bq"/><use transform="matrix(0.06172839506172839,0,0,0.06172839506172839,80.74074074074075,0)" xlink:href="#bf"/><use transform="matrix(0.06172839506172839,0,0,0.06172839506172839,93.08641975308643,0)" xlink:href="#cf"/></g><g id="ak"><use transform="matrix(0.06172839506172839,0,0,0.06172839506172839,0,0)" xlink:href="#bg"/><use transform="matrix(0.06172839506172839,0,0,0.06172839506172839,12.345679012345679,0)" xlink:href="#bl"/><use transform="matrix(0.06172839506172839,0,0,0.06172839506172839,24.691358024691358,0)" xlink:href="#br"/><use transform="matrix(0.06172839506172839,0,0,0.06172839506172839,35.80246913580247,0)" xlink:href="#cg"/></g><g id="al"><use transform="matrix(0.06172839506172839,0,0,0.06172839506172839,0,0)" xlink:href="#ch"/><use transform="matrix(0.06172839506172839,0,0,0.06172839506172839,11.11111111111111,0)" xlink:href="#bs"/><use transform="matrix(0.06172839506172839,0,0,0.06172839506172839,23.45679012345679,0)" xlink:href="#bh"/><use transform="matrix(0.06172839506172839,0,0,0.06172839506172839,35.80246913580247,0)" xlink:href="#bg"/><use transform="matrix(0.06172839506172839,0,0,0.06172839506172839,48.148148148148145,0)" xlink:href="#bn"/></g><g id="am"><use transform="matrix(0.06172839506172839,0,0,0.06172839506172839,0,0)" xlink:href="#bs"/><use transform="matrix(0.06172839506172839,0,0,0.06172839506172839,12.345679012345679,0)" xlink:href="#bh"/><use transform="matrix(0.06172839506172839,0,0,0.06172839506172839,24.691358024691358,0)" xlink:href="#bn"/><use transform="matrix(0.06172839506172839,0,0,0.06172839506172839,30.864197530864196,0)" xlink:href="#bB"/><use transform="matrix(0.06172839506172839,0,0,0.06172839506172839,43.20987654320987,0)" xlink:href="#bh"/><use transform="matrix(0.06172839506172839,0,0,0.06172839506172839,55.55555555555555,0)" xlink:href="#bn"/></g><g id="an"><use transform="matrix(0.06172839506172839,0,0,0.06172839506172839,0,0)" xlink:href="#bC"/><use transform="matrix(0.06172839506172839,0,0,0.06172839506172839,15.987654320987653,0)" xlink:href="#bu"/><use transform="matrix(0.06172839506172839,0,0,0.06172839506172839,28.333333333333332,0)" xlink:href="#br"/><use transform="matrix(0.06172839506172839,0,0,0.06172839506172839,39.44444444444444,0)" xlink:href="#bI"/><use transform="matrix(0.06172839506172839,0,0,0.06172839506172839,55.432098765432094,0)" xlink:href="#bs"/><use transform="matrix(0.06172839506172839,0,0,0.06172839506172839,67.77777777777777,0)" xlink:href="#bh"/><use transform="matrix(0.06172839506172839,0,0,0.06172839506172839,80.12345679012346,0)" xlink:href="#bg"/><use transform="matrix(0.06172839506172839,0,0,0.06172839506172839,92.46913580246914,0)" xlink:href="#bn"/><use transform="matrix(0.06172839506172839,0,0,0.06172839506172839,98.64197530864197,0)" xlink:href="#cg"/></g><g id="ao"><use transform="matrix(0.06172839506172839,0,0,0.06172839506172839,0,0)" xlink:href="#bt"/><use transform="matrix(0.06172839506172839,0,0,0.06172839506172839,4.876543209876543,0)" xlink:href="#bE"/><use transform="matrix(0.06172839506172839,0,0,0.06172839506172839,9.753086419753085,0)" xlink:href="#bD"/><use transform="matrix(0.06172839506172839,0,0,0.06172839506172839,20.864197530864196,0)" xlink:href="#bn"/><use transform="matrix(0.06172839506172839,0,0,0.06172839506172839,27.037037037037035,0)" xlink:href="#ce"/><use transform="matrix(0.06172839506172839,0,0,0.06172839506172839,40,0)" xlink:href="#bN"/><use transform="matrix(0.06172839506172839,0,0,0.06172839506172839,54.81481481481481,0)" xlink:href="#bh"/><use transform="matrix(0.06172839506172839,0,0,0.06172839506172839,67.1604938271605,0)" xlink:href="#bn"/><use transform="matrix(0.06172839506172839,0,0,0.06172839506172839,73.33333333333333,0)" xlink:href="#bq"/><use transform="matrix(0.06172839506172839,0,0,0.06172839506172839,84.44444444444444,0)" xlink:href="#bf"/><use transform="matrix(0.06172839506172839,0,0,0.06172839506172839,96.79012345679013,0)" xlink:href="#bC"/><use transform="matrix(0.06172839506172839,0,0,0.06172839506172839,112.77777777777779,0)" xlink:href="#bu"/><use transform="matrix(0.06172839506172839,0,0,0.06172839506172839,125.12345679012347,0)" xlink:href="#br"/><use transform="matrix(0.06172839506172839,0,0,0.06172839506172839,136.23456790123458,0)" xlink:href="#cf"/></g><g id="ap"><use transform="matrix(0.06172839506172839,0,0,0.06172839506172839,0,0)" xlink:href="#bK"/><use transform="matrix(0.06172839506172839,0,0,0.06172839506172839,14.814814814814813,0)" xlink:href="#bj"/><use transform="matrix(0.06172839506172839,0,0,0.06172839506172839,22.160493827160494,0)" xlink:href="#bs"/><use transform="matrix(0.06172839506172839,0,0,0.06172839506172839,34.50617283950617,0)" xlink:href="#bz"/><use transform="matrix(0.06172839506172839,0,0,0.06172839506172839,46.85185185185185,0)" xlink:href="#bj"/><use transform="matrix(0.06172839506172839,0,0,0.06172839506172839,54.197530864197525,0)" xlink:href="#bf"/><use transform="matrix(0.06172839506172839,0,0,0.06172839506172839,66.5432098765432,0)" xlink:href="#bA"/></g><g id="aq"><use transform="matrix(0.06172839506172839,0,0,0.06172839506172839,0,0)" xlink:href="#bo"/><use transform="matrix(0.06172839506172839,0,0,0.06172839506172839,11.11111111111111,0)" xlink:href="#bl"/><use transform="matrix(0.06172839506172839,0,0,0.06172839506172839,23.45679012345679,0)" xlink:href="#bD"/><use transform="matrix(0.06172839506172839,0,0,0.06172839506172839,34.5679012345679,0)" xlink:href="#bF"/><use transform="matrix(0.06172839506172839,0,0,0.06172839506172839,45.67901234567901,0)" xlink:href="#bu"/><use transform="matrix(0.06172839506172839,0,0,0.06172839506172839,58.02469135802469,0)" xlink:href="#bg"/><use transform="matrix(0.06172839506172839,0,0,0.06172839506172839,70.37037037037037,0)" xlink:href="#bi"/><use transform="matrix(0.06172839506172839,0,0,0.06172839506172839,82.71604938271605,0)" xlink:href="#bt"/><use transform="matrix(0.06172839506172839,0,0,0.06172839506172839,87.5925925925926,0)" xlink:href="#bt"/></g></defs></g></svg>