<svg xmlns="http://www.w3.org/2000/svg" xmlns:xlink="http://www.w3.org/1999/xlink" xmlns:lucid="lucid" width="282" height="272.69"><g transform="translate(-1179 3161)" lucid:page-tab-id="0_0"><path d="M1200-3128a12 12 0 0 1 12-12h216a12 12 0 0 1 12 12v206.7a12 12 0 0 1-12 12h-216a12 12 0 0 1-12-12z" stroke="#dfe3e8" stroke-width="2" fill="#fff"/><path d="M1234.16-3078.46c0-.42.34-.75.75-.75h18.6c.42 0 .76.32.76.74v13.56c0 .42-.34.76-.76.76h-18.6c-.4 0-.74-.34-.74-.76z" stroke="#00c2a8" stroke-width="1.05" fill="#d7faf5"/><path d="M1234.16-3046.3c0-.42.34-.76.75-.76h18.6c.42 0 .76.34.76.75v13.56c0 .4-.34.75-.76.75h-18.6c-.4 0-.74-.33-.74-.74z" stroke="#b5d6ff" stroke-width="1.05" fill="#cfe4ff"/><path d="M1234.16-3014.16c0-.4.34-.75.75-.75h18.6c.42 0 .76.33.76.74v13.57c0 .42-.34.76-.76.76h-18.6c-.4 0-.74-.34-.74-.75z" stroke="#8ee895" stroke-width="1.05" fill="#c3f7c8"/><path d="M1256.27-2975.22c0 6.65-5.4 12.05-12.06 12.05-6.65 0-12.05-5.4-12.05-12.05 0-6.66 5.4-12.06 12.06-12.06 6.67 0 12.07 5.4 12.07 12.06z" stroke="#000" stroke-opacity=".25" fill="#fc9432"/><path d="M1256.27-2943.07c0 6.66-5.4 12.06-12.06 12.06-6.65 0-12.05-5.4-12.05-12.07 0-6.66 5.4-12.06 12.06-12.06 6.67 0 12.07 5.4 12.07 12.06z" stroke="#000" stroke-opacity=".25" fill="#fe7070"/><use xlink:href="#a" transform="matrix(1,0,0,1,1232.1515317392214,-3115.886351195584) translate(0 14.76761717469682)"/><use xlink:href="#b" transform="matrix(1,0,0,1,1232.1515317392214,-3115.886351195584) translate(44.360537528679124 14.76761717469682)"/><use xlink:href="#c" transform="matrix(1,0,0,1,1268.3220049458453,-3083.734819456363) translate(0 14.685208596713023)"/><use xlink:href="#d" transform="matrix(1,0,0,1,1268.3220049458453,-3051.5832877171415) translate(0 14.685208596713023)"/><use xlink:href="#e" transform="matrix(1,0,0,1,1268.3220049458453,-3019.43175597792) translate(0 14.685208596713023)"/><use xlink:href="#f" transform="matrix(1,0,0,1,1268.3220049458453,-2987.280224238699) translate(0 14.685208596713023)"/><use xlink:href="#g" transform="matrix(1,0,0,1,1268.3220049458453,-2987.280224238699) translate(50.70599803343166 14.685208596713023)"/><g><use xlink:href="#h" transform="matrix(1,0,0,1,1268.3220049458453,-2955.1286924994774) translate(0 14.685208596713023)"/><use xlink:href="#g" transform="matrix(1,0,0,1,1268.3220049458453,-2955.1286924994774) translate(24.77613897082924 14.685208596713023)"/></g><defs><path d="M24-248c120-7 223 5 221 122C244-46 201 0 124 0H24v-248zM76-40c74 7 117-18 117-86 0-67-45-88-117-82v168" id="i"/><path d="M25-224v-37h50v37H25zM25 0v-190h50V0H25" id="j"/><path d="M133-34C117-15 103 5 69 4 32 3 11-16 11-54c-1-60 55-63 116-61 1-26-3-47-28-47-18 1-26 9-28 27l-52-2c7-38 36-58 82-57s74 22 75 68l1 82c-1 14 12 18 25 15v27c-30 8-71 5-69-32zm-48 3c29 0 43-24 42-57-32 0-66-3-65 30 0 17 8 27 23 27" id="k"/><path d="M195-6C206 82 75 100 31 46c-4-6-6-13-8-21l49-6c3 16 16 24 34 25 40 0 42-37 40-79-11 22-30 35-61 35-53 0-70-43-70-97 0-56 18-96 73-97 30 0 46 14 59 34l2-30h47zm-90-29c32 0 41-27 41-63 0-35-9-62-40-62-32 0-39 29-40 63 0 36 9 62 39 62" id="l"/><path d="M135-150c-39-12-60 13-60 57V0H25l-1-190h47c2 13-1 29 3 40 6-28 27-53 61-41v41" id="m"/><path d="M220-157c-53 9-28 100-34 157h-49v-107c1-27-5-49-29-50C55-147 81-57 75 0H25l-1-190h47c2 12-1 28 3 38 10-53 101-56 108 0 13-22 24-43 59-42 82 1 51 116 57 194h-49v-107c-1-25-5-48-29-50" id="n"/><g id="a"><use transform="matrix(0.02884300229432973,0,0,0.02884300229432973,0,0)" xlink:href="#i"/><use transform="matrix(0.02884300229432973,0,0,0.02884300229432973,7.4703375942314,0)" xlink:href="#j"/><use transform="matrix(0.02884300229432973,0,0,0.02884300229432973,10.354637823664374,0)" xlink:href="#k"/><use transform="matrix(0.02884300229432973,0,0,0.02884300229432973,16.12323828253032,0)" xlink:href="#l"/><use transform="matrix(0.02884300229432973,0,0,0.02884300229432973,22.43985578498853,0)" xlink:href="#m"/><use transform="matrix(0.02884300229432973,0,0,0.02884300229432973,26.477876106194692,0)" xlink:href="#k"/><use transform="matrix(0.02884300229432973,0,0,0.02884300229432973,32.24647656506064,0)" xlink:href="#n"/></g><path d="M147 0L96-86 75-71V0H25v-261h50v150l67-79h53l-66 74L201 0h-54" id="o"/><path d="M185-48c-13 30-37 53-82 52C43 2 14-33 14-96s30-98 90-98c62 0 83 45 84 108H66c0 31 8 55 39 56 18 0 30-7 34-22zm-45-69c5-46-57-63-70-21-2 6-4 13-4 21h74" id="p"/><path d="M123 10C108 53 80 86 19 72V37c35 8 53-11 59-39L3-190h52l48 148c12-52 28-100 44-148h51" id="q"/><g id="b"><use transform="matrix(0.02884300229432973,0,0,0.02884300229432973,0,0)" xlink:href="#o"/><use transform="matrix(0.02884300229432973,0,0,0.02884300229432973,5.768600458865945,0)" xlink:href="#p"/><use transform="matrix(0.02884300229432973,0,0,0.02884300229432973,11.53720091773189,0)" xlink:href="#q"/></g><path d="M240 0l2-218c-23 76-54 145-80 218h-23L58-218 59 0H30v-248h44l77 211c21-75 51-140 76-211h43V0h-30" id="r"/><path d="M100-194c63 0 86 42 84 106H49c0 40 14 67 53 68 26 1 43-12 49-29l28 8c-11 28-37 45-77 45C44 4 14-33 15-96c1-61 26-98 85-98zm52 81c6-60-76-77-97-28-3 7-6 17-6 28h103" id="s"/><path d="M59-47c-2 24 18 29 38 22v24C64 9 27 4 27-40v-127H5v-23h24l9-43h21v43h35v23H59v120" id="t"/><path d="M106-169C34-169 62-67 57 0H25v-261h32l-1 103c12-21 28-36 61-36 89 0 53 116 60 194h-32v-121c2-32-8-49-39-48" id="u"/><path d="M100-194c62-1 85 37 85 99 1 63-27 99-86 99S16-35 15-95c0-66 28-99 85-99zM99-20c44 1 53-31 53-75 0-43-8-75-51-75s-53 32-53 75 10 74 51 75" id="v"/><path d="M85-194c31 0 48 13 60 33l-1-100h32l1 261h-30c-2-10 0-23-3-31C134-8 116 4 85 4 32 4 16-35 15-94c0-66 23-100 70-100zm9 24c-40 0-46 34-46 75 0 40 6 74 45 74 42 0 51-32 51-76 0-42-9-74-50-73" id="w"/><g id="c"><use transform="matrix(0.02884300229432973,0,0,0.02884300229432973,0,0)" xlink:href="#r"/><use transform="matrix(0.02884300229432973,0,0,0.02884300229432973,8.624057686004589,0)" xlink:href="#s"/><use transform="matrix(0.02884300229432973,0,0,0.02884300229432973,14.392658144870534,0)" xlink:href="#t"/><use transform="matrix(0.02884300229432973,0,0,0.02884300229432973,17.276958374303508,0)" xlink:href="#u"/><use transform="matrix(0.02884300229432973,0,0,0.02884300229432973,23.045558833169455,0)" xlink:href="#v"/><use transform="matrix(0.02884300229432973,0,0,0.02884300229432973,28.814159292035402,0)" xlink:href="#w"/></g><path d="M205 0l-28-72H64L36 0H1l101-248h38L239 0h-34zm-38-99l-47-123c-12 45-31 82-46 123h93" id="x"/><path d="M114-163C36-179 61-72 57 0H25l-1-190h30c1 12-1 29 2 39 6-27 23-49 58-41v29" id="y"/><path d="M24-231v-30h32v30H24zM24 0v-190h32V0H24" id="z"/><path d="M115-194c53 0 69 39 70 98 0 66-23 100-70 100C84 3 66-7 56-30L54 0H23l1-261h32v101c10-23 28-34 59-34zm-8 174c40 0 45-34 45-75 0-40-5-75-45-74-42 0-51 32-51 76 0 43 10 73 51 73" id="A"/><path d="M84 4C-5 8 30-112 23-190h32v120c0 31 7 50 39 49 72-2 45-101 50-169h31l1 190h-30c-1-10 1-25-2-33-11 22-28 36-60 37" id="B"/><g id="d"><use transform="matrix(0.02884300229432973,0,0,0.02884300229432973,0,0)" xlink:href="#x"/><use transform="matrix(0.02884300229432973,0,0,0.02884300229432973,6.922320550639135,0)" xlink:href="#t"/><use transform="matrix(0.02884300229432973,0,0,0.02884300229432973,9.806620780072109,0)" xlink:href="#t"/><use transform="matrix(0.02884300229432973,0,0,0.02884300229432973,12.69092100950508,0)" xlink:href="#y"/><use transform="matrix(0.02884300229432973,0,0,0.02884300229432973,16.123238282530316,0)" xlink:href="#z"/><use transform="matrix(0.02884300229432973,0,0,0.02884300229432973,18.401835463782366,0)" xlink:href="#A"/><use transform="matrix(0.02884300229432973,0,0,0.02884300229432973,24.170435922648313,0)" xlink:href="#B"/><use transform="matrix(0.02884300229432973,0,0,0.02884300229432973,29.93903638151426,0)" xlink:href="#t"/><use transform="matrix(0.02884300229432973,0,0,0.02884300229432973,32.82333661094723,0)" xlink:href="#s"/></g><path d="M30 0v-248h187v28H63v79h144v27H63v87h162V0H30" id="C"/><path d="M108 0H70L1-190h34L89-25l56-165h34" id="D"/><path d="M117-194c89-4 53 116 60 194h-32v-121c0-31-8-49-39-48C34-167 62-67 57 0H25l-1-190h30c1 10-1 24 2 32 11-22 29-35 61-36" id="E"/><g id="e"><use transform="matrix(0.02884300229432973,0,0,0.02884300229432973,0,0)" xlink:href="#C"/><use transform="matrix(0.02884300229432973,0,0,0.02884300229432973,6.922320550639135,0)" xlink:href="#D"/><use transform="matrix(0.02884300229432973,0,0,0.02884300229432973,12.114060963618488,0)" xlink:href="#s"/><use transform="matrix(0.02884300229432973,0,0,0.02884300229432973,17.882661422484436,0)" xlink:href="#E"/><use transform="matrix(0.02884300229432973,0,0,0.02884300229432973,23.651261881350383,0)" xlink:href="#t"/></g><path d="M30-248c87 1 191-15 191 75 0 78-77 80-158 76V0H30v-248zm33 125c57 0 124 11 124-50 0-59-68-47-124-48v98" id="F"/><path d="M96-169c-40 0-48 33-48 73s9 75 48 75c24 0 41-14 43-38l32 2c-6 37-31 61-74 61-59 0-76-41-82-99-10-93 101-131 147-64 4 7 5 14 7 22l-32 3c-4-21-16-35-41-35" id="G"/><g id="f"><use transform="matrix(0.02884300229432973,0,0,0.02884300229432973,0,0)" xlink:href="#F"/><use transform="matrix(0.02884300229432973,0,0,0.02884300229432973,6.922320550639135,0)" xlink:href="#y"/><use transform="matrix(0.02884300229432973,0,0,0.02884300229432973,10.354637823664374,0)" xlink:href="#v"/><use transform="matrix(0.02884300229432973,0,0,0.02884300229432973,16.12323828253032,0)" xlink:href="#G"/><use transform="matrix(0.02884300229432973,0,0,0.02884300229432973,21.314978695509673,0)" xlink:href="#s"/><use transform="matrix(0.02884300229432973,0,0,0.02884300229432973,27.083579154375617,0)" xlink:href="#w"/><use transform="matrix(0.02884300229432973,0,0,0.02884300229432973,32.85217961324156,0)" xlink:href="#B"/><use transform="matrix(0.02884300229432973,0,0,0.02884300229432973,38.62078007210751,0)" xlink:href="#y"/><use transform="matrix(0.02884300229432973,0,0,0.02884300229432973,42.05309734513275,0)" xlink:href="#s"/></g><g id="g"><use transform="matrix(0.02884300229432973,0,0,0.02884300229432973,0,0)" xlink:href="#G"/><use transform="matrix(0.02884300229432973,0,0,0.02884300229432973,5.191740412979351,0)" xlink:href="#v"/><use transform="matrix(0.02884300229432973,0,0,0.02884300229432973,10.960340871845299,0)" xlink:href="#E"/><use transform="matrix(0.02884300229432973,0,0,0.02884300229432973,16.728941330711244,0)" xlink:href="#E"/><use transform="matrix(0.02884300229432973,0,0,0.02884300229432973,22.49754178957719,0)" xlink:href="#s"/><use transform="matrix(0.02884300229432973,0,0,0.02884300229432973,28.26614224844314,0)" xlink:href="#G"/><use transform="matrix(0.02884300229432973,0,0,0.02884300229432973,33.45788266142249,0)" xlink:href="#t"/><use transform="matrix(0.02884300229432973,0,0,0.02884300229432973,36.34218289085546,0)" xlink:href="#z"/><use transform="matrix(0.02884300229432973,0,0,0.02884300229432973,38.62078007210751,0)" xlink:href="#v"/><use transform="matrix(0.02884300229432973,0,0,0.02884300229432973,44.389380530973455,0)" xlink:href="#E"/></g><path d="M30-248c118-7 216 8 213 122C240-48 200 0 122 0H30v-248zM63-27c89 8 146-16 146-99s-60-101-146-95v194" id="H"/><path d="M141-36C126-15 110 5 73 4 37 3 15-17 15-53c-1-64 63-63 125-63 3-35-9-54-41-54-24 1-41 7-42 31l-33-3c5-37 33-52 76-52 45 0 72 20 72 64v82c-1 20 7 32 28 27v20c-31 9-61-2-59-35zM48-53c0 20 12 33 32 33 41-3 63-29 60-74-43 2-92-5-92 41" id="I"/><g id="h"><use transform="matrix(0.02884300229432973,0,0,0.02884300229432973,0,0)" xlink:href="#H"/><use transform="matrix(0.02884300229432973,0,0,0.02884300229432973,7.4703375942314,0)" xlink:href="#I"/><use transform="matrix(0.02884300229432973,0,0,0.02884300229432973,13.238938053097348,0)" xlink:href="#t"/><use transform="matrix(0.02884300229432973,0,0,0.02884300229432973,16.12323828253032,0)" xlink:href="#I"/></g></defs></g></svg>